<svg width="87" height="73" viewBox="0 0 87 73" fill="none" xmlns="http://www.w3.org/2000/svg">
<path d="M42.6539 0.000367533C42.7169 0.000315083 42.7799 0.000262633 42.8449 0.000208593C42.9778 0.000171393 43.1107 0.000271805 43.2436 0.000501378C43.4464 0.000794833 43.6492 0.000503787 43.852 0.000153382C43.9815 0.000189611 44.1109 0.000259854 44.2403 0.000367533C44.3007 0.000256559 44.361 0.000145585 44.4232 3.12486e-05C44.8492 0.0013247 45.192 0.0242044 45.5907 0.184966C45.8637 0.272103 46.1515 0.299864 46.4349 0.336586C46.4349 0.372769 46.4349 0.408952 46.4349 0.446231C46.5254 0.446231 46.6158 0.446231 46.709 0.446231C46.709 0.482414 46.709 0.518597 46.709 0.555877C46.7814 0.555877 46.8538 0.555877 46.9283 0.555877C46.9283 0.59206 46.9283 0.628243 46.9283 0.665523C47.0188 0.665523 47.1092 0.665523 47.2024 0.665523C47.2024 0.701706 47.2024 0.737889 47.2024 0.775168C47.2409 0.781953 47.2793 0.788737 47.3189 0.795727C47.4862 0.832095 47.644 0.883285 47.8055 0.939637C47.8055 0.97582 47.8055 1.012 47.8055 1.04928C47.8779 1.04928 47.9502 1.04928 48.0248 1.04928C48.0248 1.08547 48.0248 1.12165 48.0248 1.15893C48.0791 1.15893 48.1333 1.15893 48.1893 1.15893C48.1893 1.19511 48.1893 1.23129 48.1893 1.26857C48.2435 1.26857 48.2978 1.26857 48.3537 1.26857C48.3537 1.30476 48.3537 1.34094 48.3537 1.37822C48.3999 1.38829 48.3999 1.38829 48.4471 1.39856C48.5834 1.43589 48.7049 1.48751 48.8334 1.54611C48.8772 1.56597 48.9211 1.58583 48.9662 1.60629C48.9993 1.62148 49.0323 1.63668 49.0664 1.65233C49.0664 1.68852 49.0664 1.7247 49.0664 1.76198C49.1207 1.76198 49.175 1.76198 49.2309 1.76198C49.2309 1.79816 49.2309 1.83434 49.2309 1.87162C49.26 1.87721 49.2891 1.88279 49.3191 1.88854C49.4887 1.93758 49.6357 2.01409 49.7928 2.09434C49.8519 2.12438 49.911 2.15441 49.9719 2.18536C50.0168 2.20847 50.0617 2.23157 50.1081 2.25538C50.1081 2.29157 50.1081 2.32775 50.1081 2.36503C50.1623 2.36503 50.2166 2.36503 50.2725 2.36503C50.2725 2.40121 50.2725 2.4374 50.2725 2.47468C50.3268 2.47468 50.3811 2.47468 50.437 2.47468C50.437 2.51086 50.437 2.54704 50.437 2.58432C50.4678 2.59103 50.4986 2.59775 50.5304 2.60467C50.6667 2.64199 50.7881 2.69361 50.9167 2.75222C50.9605 2.77207 51.0043 2.79193 51.0495 2.81239C51.0991 2.83518 51.0991 2.83518 51.1497 2.85844C51.1497 2.89462 51.1497 2.9308 51.1497 2.96808C51.204 2.96808 51.2582 2.96808 51.3142 2.96808C51.3142 3.00426 51.3142 3.04045 51.3142 3.07773C51.3633 3.0896 51.3633 3.0896 51.4135 3.10171C51.5094 3.12637 51.604 3.15606 51.6979 3.18737C51.6979 3.22356 51.6979 3.25974 51.6979 3.29702C51.742 3.30719 51.742 3.30719 51.787 3.31758C51.83 3.32888 51.8729 3.34019 51.9172 3.35184C51.9737 3.36654 52.0303 3.38124 52.0885 3.39638C52.2461 3.46149 52.2461 3.46149 52.3215 3.57798C52.3328 3.61191 52.3441 3.64583 52.3558 3.68078C52.4282 3.68078 52.5005 3.68078 52.5751 3.68078C52.5751 3.71696 52.5751 3.75314 52.5751 3.79042C52.6124 3.80512 52.6497 3.81982 52.6882 3.83497C52.871 3.90887 53.0519 3.98643 53.233 4.06454C53.233 4.10072 53.233 4.1369 53.233 4.17418C53.2872 4.17418 53.3415 4.17418 53.3974 4.17418C53.3974 4.21037 53.3974 4.24655 53.3974 4.28383C53.4466 4.2957 53.4466 4.2957 53.4968 4.30781C53.5927 4.33247 53.6873 4.36217 53.7812 4.39347C53.7812 4.42966 53.7812 4.46584 53.7812 4.50312C53.827 4.5133 53.827 4.5133 53.8737 4.52368C54.0126 4.56122 54.1419 4.61229 54.2746 4.66759C54.2746 4.70377 54.2746 4.73995 54.2746 4.77723C54.3238 4.78911 54.3238 4.78911 54.374 4.80122C54.4698 4.82588 54.5644 4.85557 54.6584 4.88688C54.6584 4.92306 54.6584 4.95925 54.6584 4.99653C54.7126 4.99653 54.7669 4.99653 54.8228 4.99653C54.8228 5.03271 54.8228 5.06889 54.8228 5.10617C54.8533 5.11182 54.8839 5.11748 54.9153 5.1233C55.0671 5.16843 55.1807 5.24351 55.3162 5.32546C55.4429 5.38379 55.571 5.43681 55.7 5.48993C55.7 5.52611 55.7 5.5623 55.7 5.59958C55.7543 5.59958 55.8085 5.59958 55.8645 5.59958C55.8645 5.63576 55.8645 5.67194 55.8645 5.70922C55.895 5.71488 55.9255 5.72053 55.957 5.72635C56.1079 5.77122 56.2232 5.8477 56.3579 5.92851C56.478 5.96666 56.478 5.96666 56.5771 5.98334C56.5771 6.01952 56.5771 6.0557 56.5771 6.09298C56.6314 6.09298 56.6857 6.09298 56.7416 6.09298C56.7416 6.12916 56.7416 6.16535 56.7416 6.20263C56.7959 6.20263 56.8502 6.20263 56.9061 6.20263C56.9061 6.23881 56.9061 6.27499 56.9061 6.31227C56.9366 6.31793 56.9671 6.32358 56.9986 6.3294C57.1495 6.37427 57.2648 6.45075 57.3995 6.53156C57.5196 6.56971 57.5196 6.56971 57.6188 6.58639C57.6188 6.62257 57.6188 6.65875 57.6188 6.69603C57.6731 6.69603 57.7273 6.69603 57.7832 6.69603C57.7832 6.73222 57.7832 6.7684 57.7832 6.80568C57.8151 6.81204 57.847 6.8184 57.8798 6.82495C58.0108 6.86288 58.0988 6.91491 58.2116 6.99071C58.4098 7.11901 58.6056 7.21227 58.8249 7.29908C58.8249 7.33527 58.8249 7.37145 58.8249 7.40873C58.8792 7.40873 58.9334 7.40873 58.9894 7.40873C58.9894 7.44491 58.9894 7.48109 58.9894 7.51837C59.0202 7.52509 59.051 7.5318 59.0827 7.53872C59.2191 7.57605 59.3405 7.62767 59.4691 7.68627C59.5129 7.70613 59.5567 7.72599 59.6018 7.74645C59.6349 7.76164 59.668 7.77683 59.702 7.79249C59.702 7.82867 59.702 7.86485 59.702 7.90213C59.7563 7.90213 59.8106 7.90213 59.8665 7.90213C59.8665 7.93832 59.8665 7.9745 59.8665 8.01178C59.9106 8.02026 59.9106 8.02026 59.9556 8.02891C60.1201 8.07652 60.2633 8.15192 60.4147 8.23107C60.4147 8.26725 60.4147 8.30344 60.4147 8.34072C60.5233 8.35881 60.6318 8.3769 60.7437 8.39554C60.7437 8.43172 60.7437 8.46791 60.7437 8.50519C60.798 8.50519 60.8522 8.50519 60.9081 8.50519C60.9081 8.54137 60.9081 8.57755 60.9081 8.61483C60.9547 8.62416 60.9547 8.62416 61.0022 8.63368C61.1423 8.67392 61.2517 8.73345 61.3776 8.80671C61.5159 8.88693 61.6329 8.94778 61.7853 8.99859C61.7853 9.03477 61.7853 9.07096 61.7853 9.10824C61.8396 9.10824 61.8939 9.10824 61.9498 9.10824C61.9498 9.14442 61.9498 9.1806 61.9498 9.21788C62.0041 9.21788 62.0583 9.21788 62.1143 9.21788C62.1143 9.25406 62.1143 9.29025 62.1143 9.32753C62.1866 9.32753 62.259 9.32753 62.3335 9.32753C62.3335 9.36371 62.3335 9.39989 62.3335 9.43717C62.3878 9.43717 62.4421 9.43717 62.498 9.43717C62.498 9.47336 62.498 9.50954 62.498 9.54682C62.6066 9.56491 62.7151 9.583 62.827 9.60164C62.827 9.63782 62.827 9.67401 62.827 9.71129C62.8993 9.71129 62.9717 9.71129 63.0462 9.71129C63.0462 9.74747 63.0462 9.78365 63.0462 9.82093C63.1005 9.82093 63.1548 9.82093 63.2107 9.82093C63.2107 9.85712 63.2107 9.8933 63.2107 9.93058C63.2633 9.94923 63.2633 9.94923 63.3169 9.96827C63.4625 10.0307 63.6016 10.0969 63.7418 10.1704C63.8049 10.2033 63.8049 10.2033 63.8692 10.2368C63.9928 10.3247 64.0276 10.397 64.0879 10.5336C64.1847 10.589 64.1847 10.589 64.3072 10.6433C64.3766 10.6876 64.4451 10.7334 64.5128 10.7803C64.5464 10.8035 64.58 10.8267 64.6147 10.8506C64.6398 10.8726 64.665 10.8947 64.6909 10.9174C64.6909 10.9536 64.6909 10.9898 64.6909 11.027C64.7271 11.027 64.7633 11.027 64.8006 11.027C64.8006 11.0632 64.8006 11.0994 64.8006 11.1367C64.8368 11.1367 64.8729 11.1367 64.9102 11.1367C64.9102 11.1729 64.9102 11.209 64.9102 11.2463C64.9464 11.2463 64.9826 11.2463 65.0199 11.2463C65.0199 11.2825 65.0199 11.3187 65.0199 11.356C65.056 11.356 65.0922 11.356 65.1295 11.356C65.2186 11.4314 65.2186 11.4314 65.294 11.5204C65.294 11.5566 65.294 11.5928 65.294 11.6301C65.3302 11.6301 65.3663 11.6301 65.4036 11.6301C65.4036 11.6663 65.4036 11.7025 65.4036 11.7397C65.4398 11.7397 65.476 11.7397 65.5133 11.7397C65.5874 11.8487 65.6605 11.9583 65.7326 12.0687C65.7687 12.0868 65.8049 12.1049 65.8422 12.1235C65.8422 12.1597 65.8422 12.1959 65.8422 12.2331C65.8784 12.2331 65.9146 12.2331 65.9519 12.2331C65.9519 12.3055 65.9519 12.3779 65.9519 12.4524C65.988 12.4524 66.0242 12.4524 66.0615 12.4524C66.226 12.6928 66.226 12.6928 66.226 12.8362C66.2621 12.8362 66.2983 12.8362 66.3356 12.8362C66.3718 12.9447 66.408 13.0533 66.4453 13.1651C66.4814 13.1651 66.5176 13.1651 66.5549 13.1651C66.635 13.3103 66.6645 13.3786 66.6645 13.5489C66.7007 13.5489 66.7369 13.5489 66.7742 13.5489C66.7901 13.5935 66.7901 13.5935 66.8063 13.639C66.8206 13.6783 66.8349 13.7175 66.8496 13.7579C66.8706 13.8161 66.8706 13.8161 66.892 13.8755C66.9401 14.001 66.9401 14.001 67.0483 14.1519C67.0483 14.2243 67.0483 14.2967 67.0483 14.3712C67.0845 14.3712 67.1207 14.3712 67.158 14.3712C67.158 14.4436 67.158 14.516 67.158 14.5905C67.1941 14.5905 67.2303 14.5905 67.2676 14.5905C67.2676 14.6991 67.2676 14.8076 67.2676 14.9195C67.3038 14.9195 67.34 14.9195 67.3772 14.9195C67.3772 15.028 67.3772 15.1366 67.3772 15.2484C67.4134 15.2484 67.4496 15.2484 67.4869 15.2484C67.5865 15.6375 67.6751 15.9968 67.6514 16.3997C67.6875 16.3997 67.7237 16.3997 67.761 16.3997C67.82 16.8305 67.8235 17.2558 67.8228 17.69C67.8228 17.7706 67.8229 17.8512 67.823 17.9318C67.8233 18.1522 67.8232 18.3727 67.823 18.5931C67.8229 18.8313 67.8231 19.0694 67.8232 19.3075C67.8235 19.7736 67.8234 20.2397 67.8232 20.7059C67.8231 21.0847 67.8231 21.4636 67.8232 21.8425C67.8232 21.9234 67.8232 21.9234 67.8232 22.006C67.8232 22.1156 67.8232 22.2252 67.8232 22.3349C67.8234 23.3624 67.8232 24.3899 67.8229 25.4174C67.8227 26.2987 67.8227 27.18 67.823 28.0614C67.8233 29.0852 67.8234 30.1091 67.8232 31.1329C67.8232 31.2422 67.8232 31.3514 67.8232 31.4606C67.8232 31.5143 67.8231 31.568 67.8231 31.6234C67.8231 32.0018 67.8232 32.3801 67.8233 32.7585C67.8235 33.2196 67.8234 33.6808 67.8231 34.142C67.823 34.3772 67.8229 34.6125 67.8231 34.8477C67.8233 35.0632 67.8232 35.2786 67.8229 35.4941C67.8228 35.5719 67.8228 35.6497 67.823 35.7275C67.8236 36.1241 67.8149 36.5102 67.761 36.9034C67.7248 36.9034 67.6886 36.9034 67.6514 36.9034C67.6564 36.9899 67.6564 36.9899 67.6616 37.0782C67.6634 37.4131 67.5695 37.7323 67.4869 38.0547C67.4507 38.0547 67.4145 38.0547 67.3772 38.0547C67.3772 38.1632 67.3772 38.2718 67.3772 38.3836C67.3411 38.3836 67.3049 38.3836 67.2676 38.3836C67.2676 38.4922 67.2676 38.6007 67.2676 38.7126C67.2314 38.7126 67.1952 38.7126 67.158 38.7126C67.158 38.7849 67.158 38.8573 67.158 38.9319C67.1218 38.9319 67.0856 38.9319 67.0483 38.9319C67.0382 38.9907 67.0382 38.9907 67.028 39.0507C66.9929 39.2088 66.9422 39.3477 66.8804 39.4972C66.8606 39.5456 66.8407 39.594 66.8202 39.6439C66.805 39.6803 66.7898 39.7167 66.7742 39.7542C66.738 39.7542 66.7018 39.7542 66.6645 39.7542C66.651 39.8006 66.6374 39.8469 66.6234 39.8947C66.5472 40.1042 66.4501 40.276 66.3356 40.4669C66.2994 40.4669 66.2632 40.4669 66.226 40.4669C66.209 40.5099 66.192 40.5528 66.1746 40.5971C66.1163 40.741 66.1163 40.741 66.0615 40.8506C66.0253 40.8506 65.9891 40.8506 65.9519 40.8506C65.9394 40.8993 65.927 40.9479 65.9142 40.998C65.8324 41.2042 65.7295 41.3047 65.5681 41.4537C65.55 41.4899 65.5319 41.5261 65.5133 41.5633C65.4771 41.5633 65.4409 41.5633 65.4036 41.5633C65.4036 41.5995 65.4036 41.6357 65.4036 41.673C65.3674 41.673 65.3313 41.673 65.294 41.673C65.294 41.7092 65.294 41.7454 65.294 41.7826C65.1853 41.8751 65.0756 41.9665 64.965 42.0568C64.9469 42.0929 64.9289 42.1291 64.9102 42.1664C64.874 42.1664 64.8378 42.1664 64.8006 42.1664C64.8006 42.2026 64.8006 42.2388 64.8006 42.276C64.7644 42.276 64.7282 42.276 64.6909 42.276C64.6909 42.3122 64.6909 42.3484 64.6909 42.3857C64.6108 42.4564 64.6108 42.4564 64.5059 42.5296C64.4544 42.5663 64.4544 42.5663 64.4018 42.6037C64.3072 42.6598 64.3072 42.6598 64.1975 42.6598C64.1975 42.696 64.1975 42.7322 64.1975 42.7694C64.1432 42.7694 64.089 42.7694 64.0331 42.7694C64.0331 42.8056 64.0331 42.8418 64.0331 42.8791C63.9969 42.8791 63.9607 42.8791 63.9234 42.8791C63.9234 42.9153 63.9234 42.9515 63.9234 42.9887C63.8691 42.9887 63.8149 42.9887 63.7589 42.9887C63.7589 43.0249 63.7589 43.0611 63.7589 43.0984C63.5997 43.2103 63.5176 43.2629 63.3204 43.2629C63.3204 43.299 63.3204 43.3352 63.3204 43.3725C63.2661 43.3725 63.2118 43.3725 63.1559 43.3725C63.1559 43.4087 63.1559 43.4449 63.1559 43.4821C63.0326 43.6054 62.9372 43.6424 62.7756 43.7049C62.7276 43.7236 62.6796 43.7423 62.6301 43.7616C62.532 43.7984 62.433 43.8328 62.3335 43.8659C62.3335 43.9021 62.3335 43.9383 62.3335 43.9755C62.2612 43.9755 62.1888 43.9755 62.1143 43.9755C62.1143 44.0117 62.1143 44.0479 62.1143 44.0852C62.06 44.0852 62.0057 44.0852 61.9498 44.0852C61.9498 44.1214 61.9498 44.1576 61.9498 44.1948C61.8955 44.1948 61.8412 44.1948 61.7853 44.1948C61.7853 44.231 61.7853 44.2672 61.7853 44.3045C61.4221 44.469 61.4221 44.469 61.2371 44.469C61.2371 44.5051 61.2371 44.5413 61.2371 44.5786C61.1828 44.5786 61.1285 44.5786 61.0726 44.5786C61.0726 44.6148 61.0726 44.651 61.0726 44.6882C61.0183 44.6882 60.9641 44.6882 60.9081 44.6882C60.9081 44.7244 60.9081 44.7606 60.9081 44.7979C60.8539 44.7979 60.7996 44.7979 60.7437 44.7979C60.7437 44.8341 60.7437 44.8703 60.7437 44.9075C60.6491 44.9468 60.5545 44.9861 60.4599 45.0253C60.3454 45.0757 60.3454 45.0757 60.1955 45.1817C60.1412 45.1817 60.0869 45.1817 60.031 45.1817C60.031 45.2178 60.031 45.254 60.031 45.2913C59.9767 45.2913 59.9224 45.2913 59.8665 45.2913C59.8665 45.3275 59.8665 45.3637 59.8665 45.4009C59.8122 45.4009 59.758 45.4009 59.702 45.4009C59.702 45.4371 59.702 45.4733 59.702 45.5106C59.6075 45.5499 59.5129 45.5891 59.4183 45.6284C59.3037 45.6788 59.3037 45.6788 59.1538 45.7847C59.0995 45.7847 59.0453 45.7847 58.9894 45.7847C58.9894 45.8209 58.9894 45.8571 58.9894 45.8943C58.9351 45.8943 58.8808 45.8943 58.8249 45.8943C58.8249 45.9305 58.8249 45.9667 58.8249 46.004C58.7706 46.004 58.7163 46.004 58.6604 46.004C58.6604 46.0402 58.6604 46.0764 58.6604 46.1136C58.5658 46.1529 58.4712 46.1922 58.3767 46.2314C58.2621 46.2818 58.2621 46.2818 58.1122 46.3878C58.0579 46.3878 58.0036 46.3878 57.9477 46.3878C57.9477 46.4239 57.9477 46.4601 57.9477 46.4974C57.8934 46.4974 57.8392 46.4974 57.7832 46.4974C57.7832 46.5336 57.7832 46.5698 57.7832 46.607C57.6188 46.7167 57.6188 46.7167 57.3995 46.7167C57.3995 46.7529 57.3995 46.7891 57.3995 46.8263C57.0911 46.9908 57.0911 46.9908 56.9061 46.9908C56.9061 47.027 56.9061 47.0632 56.9061 47.1004C56.8518 47.1004 56.7975 47.1004 56.7416 47.1004C56.7416 47.1366 56.7416 47.1728 56.7416 47.2101C56.6873 47.2101 56.6331 47.2101 56.5771 47.2101C56.5771 47.2463 56.5771 47.2825 56.5771 47.3197C56.5245 47.3387 56.5245 47.3387 56.4707 47.3581C56.2321 47.448 56.0177 47.5357 55.8131 47.6898C55.6452 47.8131 55.6452 47.8131 55.4807 47.8131C55.4807 47.8493 55.4807 47.8855 55.4807 47.9228C55.4152 47.9546 55.4152 47.9546 55.3483 47.987C54.9791 48.1643 54.9791 48.1643 54.6309 48.3785C54.5063 48.4626 54.4216 48.5032 54.2746 48.5258C54.2746 48.562 54.2746 48.5982 54.2746 48.6355C54.197 48.6711 54.1193 48.7065 54.0416 48.7417C53.9983 48.7614 53.9551 48.7811 53.9105 48.8015C53.7944 48.8493 53.6843 48.8829 53.5619 48.9096C53.5619 48.9458 53.5619 48.982 53.5619 49.0192C53.5076 49.0192 53.4533 49.0192 53.3974 49.0192C53.3974 49.0554 53.3974 49.0916 53.3974 49.1289C53.3432 49.1289 53.2889 49.1289 53.233 49.1289C53.233 49.1651 53.233 49.2013 53.233 49.2385C53.128 49.2925 53.0229 49.3461 52.9177 49.3996C52.8592 49.4295 52.8007 49.4594 52.7404 49.4902C52.6088 49.5517 52.4973 49.5952 52.3558 49.6223C52.3558 49.6585 52.3558 49.6947 52.3558 49.7319C52.2884 49.7647 52.2884 49.7647 52.2196 49.7981C52.1605 49.8272 52.1014 49.8562 52.0406 49.8861C51.9528 49.9291 51.9528 49.9291 51.8632 49.9729C51.7002 50.0538 51.7002 50.0538 51.5771 50.154C51.4786 50.2253 51.4786 50.2253 51.3142 50.2253C51.3142 50.2615 51.3142 50.2977 51.3142 50.335C51.2599 50.335 51.2056 50.335 51.1497 50.335C51.1497 50.3712 51.1497 50.4074 51.1497 50.4446C51.0721 50.4803 50.9944 50.5156 50.9167 50.5509C50.8734 50.5706 50.8302 50.5903 50.7856 50.6106C50.6695 50.6585 50.5594 50.6921 50.437 50.7188C50.437 50.7549 50.437 50.7911 50.437 50.8284C50.3827 50.8284 50.3284 50.8284 50.2725 50.8284C50.2725 50.8646 50.2725 50.9008 50.2725 50.938C50.2051 50.9708 50.2051 50.9708 50.1363 51.0042C50.0772 51.0333 50.0182 51.0623 49.9573 51.0922C49.8695 51.1352 49.8695 51.1352 49.78 51.179C49.6169 51.2599 49.6169 51.2599 49.4939 51.3601C49.3954 51.4315 49.3954 51.4315 49.2309 51.4315C49.2309 51.4676 49.2309 51.5038 49.2309 51.5411C49.1766 51.5411 49.1223 51.5411 49.0664 51.5411C49.0664 51.5773 49.0664 51.6135 49.0664 51.6507C48.9941 51.6507 48.9217 51.6507 48.8471 51.6507C48.8471 51.6869 48.8471 51.7231 48.8471 51.7604C48.5388 51.9249 48.5388 51.9249 48.3537 51.9249C48.3537 51.961 48.3537 51.9972 48.3537 52.0345C48.2995 52.0345 48.2452 52.0345 48.1893 52.0345C48.1893 52.0707 48.1893 52.1069 48.1893 52.1441C48.135 52.1441 48.0807 52.1441 48.0248 52.1441C48.0248 52.1803 48.0248 52.2165 48.0248 52.2538C47.9524 52.2538 47.8801 52.2538 47.8055 52.2538C47.8055 52.29 47.8055 52.3262 47.8055 52.3634C47.7108 52.3991 47.616 52.4344 47.5211 52.4697C47.4419 52.4992 47.4419 52.4992 47.3611 52.5294C47.2169 52.5779 47.0781 52.6115 46.9283 52.6376C46.9283 52.6737 46.9283 52.7099 46.9283 52.7472C46.8379 52.7472 46.7474 52.7472 46.6542 52.7472C46.6542 52.7834 46.6542 52.8196 46.6542 52.8568C46.4639 52.9692 46.2859 52.9957 46.0683 53.0247C45.8502 53.0366 45.8502 53.0366 45.6674 53.131C45.5395 53.1492 45.4116 53.1675 45.2836 53.1858C45.2656 53.2039 45.2475 53.222 45.2288 53.2406C44.8908 53.3061 44.5544 53.3052 44.211 53.3066C44.15 53.3069 44.0891 53.3072 44.0264 53.3075C43.8977 53.308 43.769 53.3084 43.6403 53.3086C43.4456 53.3091 43.251 53.3108 43.0564 53.3126C42.3538 53.3158 41.7221 53.2967 41.0507 53.072C40.8521 53.0061 40.6669 52.988 40.4592 52.9665C40.4592 52.9303 40.4592 52.8941 40.4592 52.8568C40.3982 52.8602 40.3982 52.8602 40.3359 52.8637C40.1803 52.8566 40.0981 52.8256 39.9658 52.7472C39.9658 52.711 39.9658 52.6748 39.9658 52.6376C39.9272 52.6308 39.8885 52.6241 39.8487 52.6172C39.6832 52.5809 39.5317 52.5289 39.3731 52.4697C39.3196 52.4498 39.2661 52.4299 39.211 52.4095C39.1706 52.3943 39.1302 52.3791 39.0887 52.3634C39.0887 52.3273 39.0887 52.2911 39.0887 52.2538C39.0163 52.2538 38.9439 52.2538 38.8694 52.2538C38.8694 52.2176 38.8694 52.1814 38.8694 52.1441C38.8151 52.1441 38.7608 52.1441 38.7049 52.1441C38.7049 52.108 38.7049 52.0718 38.7049 52.0345C38.6578 52.0244 38.6578 52.0244 38.6098 52.0142C38.4802 51.9782 38.372 51.9283 38.2526 51.8666C38.2139 51.8467 38.1752 51.8269 38.1353 51.8064C38.1061 51.7912 38.077 51.776 38.047 51.7604C38.047 51.7242 38.047 51.688 38.047 51.6507C37.9747 51.6507 37.9023 51.6507 37.8277 51.6507C37.8277 51.6146 37.8277 51.5784 37.8277 51.5411C37.7735 51.5411 37.7192 51.5411 37.6633 51.5411C37.6633 51.5049 37.6633 51.4687 37.6633 51.4315C37.6196 51.4231 37.6196 51.4231 37.575 51.4145C37.4055 51.3655 37.2584 51.289 37.1013 51.2087C37.0423 51.1787 36.9832 51.1487 36.9223 51.1177C36.8549 51.0831 36.8549 51.0831 36.7861 51.0477C36.7861 51.0115 36.7861 50.9753 36.7861 50.938C36.7318 50.938 36.6776 50.938 36.6216 50.938C36.6216 50.9019 36.6216 50.8657 36.6216 50.8284C36.5674 50.8284 36.5131 50.8284 36.4572 50.8284C36.4572 50.7922 36.4572 50.756 36.4572 50.7188C36.4244 50.7108 36.3916 50.7029 36.3578 50.6948C36.2619 50.6701 36.1673 50.6404 36.0734 50.6091C36.0734 50.5729 36.0734 50.5367 36.0734 50.4995C36.0135 50.4927 35.9536 50.4859 35.8918 50.4789C35.6897 50.4446 35.6897 50.4446 35.5252 50.335C35.5252 50.2988 35.5252 50.2626 35.5252 50.2253C35.4709 50.2253 35.4166 50.2253 35.3607 50.2253C35.3607 50.1892 35.3607 50.153 35.3607 50.1157C35.3132 50.101 35.2657 50.0863 35.2168 50.0712C35.0363 50.0076 34.8722 49.9303 34.7028 49.8416C34.7028 49.8054 34.7028 49.7692 34.7028 49.7319C34.6486 49.7319 34.5943 49.7319 34.5384 49.7319C34.5384 49.6958 34.5384 49.6596 34.5384 49.6223C34.466 49.6223 34.3936 49.6223 34.3191 49.6223C34.3191 49.5861 34.3191 49.5499 34.3191 49.5127C34.2818 49.498 34.2445 49.4833 34.206 49.4681C34.0232 49.3942 33.8423 49.3166 33.6612 49.2385C33.6612 49.2024 33.6612 49.1662 33.6612 49.1289C33.6284 49.121 33.5956 49.1131 33.5618 49.1049C33.466 49.0803 33.3714 49.0506 33.2775 49.0192C33.2775 48.9831 33.2775 48.9469 33.2775 48.9096C33.2232 48.9096 33.1689 48.9096 33.113 48.9096C33.113 48.8734 33.113 48.8372 33.113 48.8C33.0672 48.7898 33.0672 48.7898 33.0205 48.7794C32.8816 48.7419 32.7523 48.6908 32.6196 48.6355C32.6196 48.5993 32.6196 48.5631 32.6196 48.5258C32.5472 48.5258 32.4748 48.5258 32.4003 48.5258C32.4003 48.4897 32.4003 48.4535 32.4003 48.4162C32.346 48.4162 32.2917 48.4162 32.2358 48.4162C32.2358 48.38 32.2358 48.3438 32.2358 48.3066C32.2044 48.2998 32.1731 48.2931 32.1407 48.2862C32.0111 48.2502 31.9029 48.2003 31.7835 48.1387C31.7448 48.1188 31.7061 48.0989 31.6662 48.0785C31.6371 48.0633 31.6079 48.0481 31.5779 48.0324C31.5779 47.9963 31.5779 47.9601 31.5779 47.9228C31.5452 47.9149 31.5124 47.907 31.4786 47.8988C31.3827 47.8741 31.2881 47.8445 31.1942 47.8131C31.1942 47.777 31.1942 47.7408 31.1942 47.7035C31.1399 47.7035 31.0856 47.7035 31.0297 47.7035C31.0297 47.6673 31.0297 47.6311 31.0297 47.5939C30.9989 47.5871 30.9681 47.5804 30.9363 47.5735C30.8 47.5362 30.6786 47.4846 30.55 47.426C30.5062 47.4061 30.4624 47.3862 30.4172 47.3658C30.3842 47.3506 30.3511 47.3354 30.317 47.3197C30.317 47.2836 30.317 47.2474 30.317 47.2101C30.2627 47.2101 30.2085 47.2101 30.1526 47.2101C30.1526 47.1739 30.1526 47.1377 30.1526 47.1004C30.1212 47.0937 30.0898 47.087 30.0575 47.0801C29.9278 47.0441 29.8197 46.9942 29.7003 46.9326C29.6615 46.9127 29.6228 46.8928 29.5829 46.8724C29.5538 46.8572 29.5247 46.842 29.4947 46.8263C29.4947 46.7902 29.4947 46.754 29.4947 46.7167C29.4223 46.7167 29.3499 46.7167 29.2754 46.7167C29.2754 46.6805 29.2754 46.6443 29.2754 46.607C29.2211 46.607 29.1668 46.607 29.1109 46.607C29.1109 46.5709 29.1109 46.5347 29.1109 46.4974C29.0566 46.4974 29.0024 46.4974 28.9464 46.4974C28.9464 46.4612 28.9464 46.425 28.9464 46.3878C28.9007 46.3793 28.9007 46.3793 28.8539 46.3706C28.7272 46.3329 28.7272 46.3329 28.5935 46.2507C28.4584 46.1603 28.4584 46.1603 28.3057 46.1445C28.1789 46.1136 28.1789 46.1136 28.107 46.0006C28.0945 45.9655 28.0821 45.9305 28.0693 45.8943C28.015 45.8943 27.9607 45.8943 27.9048 45.8943C27.9048 45.8582 27.9048 45.822 27.9048 45.7847C27.8324 45.7847 27.7601 45.7847 27.6855 45.7847C27.6855 45.7485 27.6855 45.7123 27.6855 45.6751C27.4413 45.5936 27.4413 45.5936 27.1921 45.5106C27.1921 45.4744 27.1921 45.4382 27.1921 45.4009C27.1378 45.4009 27.0836 45.4009 27.0277 45.4009C27.0277 45.3648 27.0277 45.3286 27.0277 45.2913C26.9734 45.2913 26.9191 45.2913 26.8632 45.2913C26.8632 45.2551 26.8632 45.2189 26.8632 45.1817C26.7908 45.1817 26.7184 45.1817 26.6439 45.1817C26.6439 45.1455 26.6439 45.1093 26.6439 45.072C26.5981 45.0618 26.5981 45.0618 26.5514 45.0514C26.4125 45.0139 26.2832 44.9628 26.1505 44.9075C26.1505 44.8714 26.1505 44.8352 26.1505 44.7979C26.0962 44.7979 26.0419 44.7979 25.986 44.7979C25.986 44.7617 25.986 44.7255 25.986 44.6882C25.9137 44.6882 25.8413 44.6882 25.7667 44.6882C25.7667 44.6521 25.7667 44.6159 25.7667 44.5786C25.7294 44.5639 25.6921 44.5492 25.6537 44.5341C25.4708 44.4602 25.2899 44.3826 25.1089 44.3045C25.1089 44.2683 25.1089 44.2321 25.1089 44.1948C25.0761 44.1869 25.0433 44.179 25.0095 44.1709C24.9136 44.1462 24.819 44.1165 24.7251 44.0852C24.7251 44.049 24.7251 44.0128 24.7251 43.9755C24.6708 43.9755 24.6165 43.9755 24.5606 43.9755C24.5606 43.9394 24.5606 43.9032 24.5606 43.8659C24.5301 43.8591 24.4996 43.8523 24.4681 43.8453C24.3292 43.8078 24.1999 43.7567 24.0672 43.7014C24.0672 43.6653 24.0672 43.6291 24.0672 43.5918C23.9949 43.5918 23.9225 43.5918 23.8479 43.5918C23.8479 43.5556 23.8479 43.5194 23.8479 43.4821C23.7937 43.4821 23.7394 43.4821 23.6835 43.4821C23.6835 43.446 23.6835 43.4098 23.6835 43.3725C23.5749 43.3363 23.4664 43.3001 23.3545 43.2629C23.3545 43.2267 23.3545 43.1905 23.3545 43.1532C23.3149 43.1385 23.2754 43.1238 23.2346 43.1087C23.0805 43.0436 22.9442 42.9737 22.8063 42.8791C22.8063 42.8429 22.8063 42.8067 22.8063 42.7694C22.7158 42.7333 22.6254 42.6971 22.5322 42.6598C22.5322 42.6236 22.5322 42.5874 22.5322 42.5502C22.4881 42.5355 22.444 42.5208 22.3985 42.5056C22.329 42.4734 22.329 42.4734 22.2581 42.4405C22.2309 42.3591 22.2309 42.3591 22.2032 42.276C22.1671 42.276 22.1309 42.276 22.0936 42.276C22.0936 42.2399 22.0936 42.2037 22.0936 42.1664C22.0574 42.1664 22.0212 42.1664 21.984 42.1664C21.984 42.1302 21.984 42.094 21.984 42.0568C21.9478 42.0568 21.9116 42.0568 21.8743 42.0568C21.8743 42.0206 21.8743 41.9844 21.8743 41.9471C21.8381 41.9471 21.8019 41.9471 21.7647 41.9471C21.7466 41.9109 21.7285 41.8747 21.7098 41.8375C21.6556 41.8194 21.6013 41.8013 21.5454 41.7826C21.5077 41.6696 21.5077 41.6696 21.4905 41.5633C21.4544 41.5633 21.4182 41.5633 21.3809 41.5633C21.3067 41.4544 21.2337 41.3447 21.1616 41.2344C21.1254 41.2163 21.0892 41.1982 21.052 41.1796C21.052 41.1434 21.052 41.1072 21.052 41.0699C21.0158 41.0699 20.9796 41.0699 20.9423 41.0699C20.723 40.6999 20.723 40.6999 20.723 40.5765C20.6868 40.5765 20.6507 40.5765 20.6134 40.5765C20.5015 40.4172 20.4489 40.3352 20.4489 40.138C20.4127 40.138 20.3765 40.138 20.3393 40.138C20.3393 40.0837 20.3393 40.0294 20.3393 39.9735C20.3031 39.9735 20.2669 39.9735 20.2296 39.9735C20.2106 39.9296 20.2106 39.9296 20.1913 39.8848C20.0676 39.6022 19.9339 39.328 19.7885 39.0558C19.7362 38.9319 19.7362 38.9319 19.7362 38.7126C19.7 38.7126 19.6639 38.7126 19.6266 38.7126C19.6266 38.6221 19.6266 38.5316 19.6266 38.4384C19.5904 38.4384 19.5542 38.4384 19.5169 38.4384C19.4988 38.348 19.4807 38.2575 19.4621 38.1643C19.444 38.1643 19.4259 38.1643 19.4073 38.1643C19.4 38.1135 19.3927 38.0627 19.3852 38.0104C19.3707 37.9119 19.3707 37.9119 19.3559 37.8114C19.3416 37.7131 19.3416 37.7131 19.327 37.6129C19.3146 37.4582 19.3146 37.4582 19.2428 37.3968C19.1033 36.8215 19.0544 36.2629 19.0575 35.6708C19.0573 35.5893 19.057 35.5077 19.0567 35.4262C19.056 35.2048 19.0563 34.9835 19.0568 34.7621C19.0572 34.5224 19.0566 34.2826 19.0562 34.0428C19.0555 33.5742 19.0556 33.1055 19.0561 32.6369C19.0565 32.2557 19.0565 31.8746 19.0563 31.4935C19.0563 31.4391 19.0563 31.3847 19.0563 31.3286C19.0562 31.2181 19.0562 31.1075 19.0561 30.997C19.0556 29.9622 19.0562 28.9275 19.0571 27.8928C19.0578 27.0064 19.0577 26.12 19.0569 25.2336C19.056 24.2024 19.0557 23.1712 19.0562 22.14C19.0562 22.0299 19.0563 21.9197 19.0563 21.8096C19.0564 21.7554 19.0564 21.7013 19.0564 21.6455C19.0566 21.2651 19.0563 20.8848 19.0559 20.5044C19.0555 20.0404 19.0556 19.5764 19.0565 19.1125C19.0569 18.8761 19.0571 18.6397 19.0565 18.4033C19.056 18.1863 19.0563 17.9694 19.0572 17.7524C19.0574 17.6745 19.0573 17.5966 19.0569 17.5187C19.0535 16.8228 19.1611 16.1908 19.3525 15.5225C19.3727 15.3949 19.3916 15.267 19.4073 15.1387C19.4254 15.1387 19.4435 15.1387 19.4621 15.1387C19.4802 15.0483 19.4983 14.9578 19.5169 14.8646C19.5531 14.8646 19.5893 14.8646 19.6266 14.8646C19.6266 14.7742 19.6266 14.6837 19.6266 14.5905C19.6628 14.5905 19.6989 14.5905 19.7362 14.5905C19.7419 14.5539 19.7477 14.5173 19.7536 14.4796C19.8 14.2773 19.8741 14.09 19.9521 13.8984C19.9666 13.8618 19.9811 13.8252 19.9961 13.7874C20.0628 13.6219 20.1303 13.4786 20.2296 13.3296C20.2658 13.3296 20.302 13.3296 20.3393 13.3296C20.3393 13.2753 20.3393 13.221 20.3393 13.1651C20.3755 13.1651 20.4116 13.1651 20.4489 13.1651C20.4489 13.0928 20.4489 13.0204 20.4489 12.9458C20.4851 12.9458 20.5213 12.9458 20.5586 12.9458C20.5806 12.8848 20.5806 12.8848 20.6031 12.8225C20.6656 12.6777 20.7282 12.57 20.8327 12.4524C20.8689 12.4524 20.905 12.4524 20.9423 12.4524C20.9423 12.3801 20.9423 12.3077 20.9423 12.2331C20.9785 12.2331 21.0147 12.2331 21.052 12.2331C21.052 12.197 21.052 12.1608 21.052 12.1235C21.1056 12.0675 21.1605 12.0127 21.2164 11.959C21.2345 11.9228 21.2526 11.8867 21.2713 11.8494C21.3074 11.8494 21.3436 11.8494 21.3809 11.8494C21.3809 11.8132 21.3809 11.777 21.3809 11.7397C21.4171 11.7397 21.4533 11.7397 21.4905 11.7397C21.5086 11.6674 21.5267 11.595 21.5454 11.5204C21.6177 11.5023 21.6901 11.4843 21.7647 11.4656C21.7647 11.4294 21.7647 11.3933 21.7647 11.356C21.8008 11.356 21.837 11.356 21.8743 11.356C21.8743 11.3198 21.8743 11.2836 21.8743 11.2463C21.9105 11.2463 21.9467 11.2463 21.984 11.2463C21.984 11.2101 21.984 11.174 21.984 11.1367C22.0201 11.1367 22.0563 11.1367 22.0936 11.1367C22.097 11.1039 22.1004 11.0711 22.1039 11.0373C22.1668 10.8679 22.2638 10.8303 22.4225 10.7529C22.4587 10.7529 22.4949 10.7529 22.5322 10.7529C22.5322 10.7167 22.5322 10.6806 22.5322 10.6433C22.5684 10.6433 22.6045 10.6433 22.6418 10.6433C22.6418 10.6071 22.6418 10.5709 22.6418 10.5336C22.7323 10.4974 22.8227 10.4613 22.9159 10.424C22.9159 10.3878 22.9159 10.3516 22.9159 10.3143C23.2312 10.1499 23.2312 10.1499 23.3545 10.1499C23.3545 10.1137 23.3545 10.0775 23.3545 10.0402C23.4088 10.0402 23.4631 10.0402 23.519 10.0402C23.519 10.004 23.519 9.96786 23.519 9.93058C23.5733 9.93058 23.6275 9.93058 23.6835 9.93058C23.6835 9.89439 23.6835 9.85821 23.6835 9.82093C23.7377 9.82093 23.792 9.82093 23.8479 9.82093C23.8479 9.78475 23.8479 9.74857 23.8479 9.71129C23.9203 9.71129 23.9927 9.71129 24.0672 9.71129C24.0672 9.6751 24.0672 9.63892 24.0672 9.60164C24.3756 9.43717 24.3756 9.43717 24.5606 9.43717C24.5606 9.40099 24.5606 9.36481 24.5606 9.32753C24.6149 9.32753 24.6692 9.32753 24.7251 9.32753C24.7251 9.29134 24.7251 9.25516 24.7251 9.21788C24.8896 9.10824 24.8896 9.10824 25.1089 9.10824C25.1089 9.07205 25.1089 9.03587 25.1089 8.99859C25.4172 8.83412 25.4172 8.83412 25.6023 8.83412C25.6023 8.79794 25.6023 8.76176 25.6023 8.72448C25.6565 8.72448 25.7108 8.72448 25.7667 8.72448C25.7667 8.68829 25.7667 8.65211 25.7667 8.61483C25.8391 8.61483 25.9115 8.61483 25.986 8.61483C25.986 8.57865 25.986 8.54246 25.986 8.50519C26.0403 8.50519 26.0946 8.50519 26.1505 8.50519C26.1505 8.469 26.1505 8.43282 26.1505 8.39554C26.4589 8.23107 26.4589 8.23107 26.6439 8.23107C26.6439 8.19489 26.6439 8.1587 26.6439 8.12143C26.6982 8.12143 26.7524 8.12143 26.8084 8.12143C26.8084 8.08524 26.8084 8.04906 26.8084 8.01178C26.8626 8.01178 26.9169 8.01178 26.9728 8.01178C26.9728 7.9756 26.9728 7.93941 26.9728 7.90213C27.0452 7.90213 27.1176 7.90213 27.1921 7.90213C27.1921 7.86595 27.1921 7.82977 27.1921 7.79249C27.5005 7.62802 27.5005 7.62802 27.6855 7.62802C27.6855 7.59184 27.6855 7.55565 27.6855 7.51837C27.7579 7.51837 27.8303 7.51837 27.9048 7.51837C27.9048 7.48219 27.9048 7.44601 27.9048 7.40873C27.9591 7.40873 28.0134 7.40873 28.0693 7.40873C28.0693 7.37255 28.0693 7.33636 28.0693 7.29908C28.1236 7.29908 28.1778 7.29908 28.2338 7.29908C28.2338 7.2629 28.2338 7.22672 28.2338 7.18944C28.3227 7.14349 28.4118 7.09786 28.501 7.05238C28.5506 7.02694 28.6002 7.0015 28.6513 6.97529C28.782 6.91532 28.782 6.91532 28.8916 6.91532C28.8916 6.87914 28.8916 6.84296 28.8916 6.80568C28.964 6.80568 29.0364 6.80568 29.1109 6.80568C29.1109 6.7695 29.1109 6.73331 29.1109 6.69603C29.1652 6.69603 29.2195 6.69603 29.2754 6.69603C29.2754 6.65985 29.2754 6.62367 29.2754 6.58639C29.3803 6.53243 29.4854 6.47882 29.5906 6.42534C29.6491 6.39545 29.7076 6.36556 29.7679 6.33476C29.8995 6.27323 30.011 6.22976 30.1526 6.20263C30.1526 6.16644 30.1526 6.13026 30.1526 6.09298C30.2068 6.09298 30.2611 6.09298 30.317 6.09298C30.317 6.0568 30.317 6.02062 30.317 5.98334C30.4048 5.93725 30.4927 5.89165 30.5809 5.84628C30.6298 5.82084 30.6788 5.7954 30.7293 5.76918C30.8652 5.70922 30.8652 5.70922 31.0297 5.70922C31.0297 5.67304 31.0297 5.63686 31.0297 5.59958C31.084 5.59958 31.1383 5.59958 31.1942 5.59958C31.1942 5.56339 31.1942 5.52721 31.1942 5.48993C31.2485 5.48993 31.3027 5.48993 31.3587 5.48993C31.3587 5.45375 31.3587 5.41756 31.3587 5.38028C31.431 5.38028 31.5034 5.38028 31.5779 5.38028C31.5779 5.3441 31.5779 5.30792 31.5779 5.27064C31.6463 5.23495 31.7149 5.19962 31.7835 5.16442C31.8217 5.1447 31.8599 5.12499 31.8992 5.10467C32.0112 5.05378 32.1158 5.0222 32.2358 4.99653C32.2358 4.96034 32.2358 4.92416 32.2358 4.88688C32.2901 4.88688 32.3444 4.88688 32.4003 4.88688C32.4003 4.8507 32.4003 4.81451 32.4003 4.77723C32.4546 4.77723 32.5088 4.77723 32.5648 4.77723C32.5648 4.74105 32.5648 4.70487 32.5648 4.66759C32.928 4.50312 32.928 4.50312 33.113 4.50312C33.113 4.46694 33.113 4.43075 33.113 4.39347C33.1673 4.39347 33.2215 4.39347 33.2775 4.39347C33.2775 4.35729 33.2775 4.32111 33.2775 4.28383C33.3317 4.28383 33.386 4.28383 33.4419 4.28383C33.4419 4.24765 33.4419 4.21146 33.4419 4.17418C33.5143 4.17418 33.5867 4.17418 33.6612 4.17418C33.6612 4.138 33.6612 4.10182 33.6612 4.06454C33.9696 3.90007 33.9696 3.90007 34.1546 3.90007C34.1546 3.86389 34.1546 3.8277 34.1546 3.79042C34.2089 3.79042 34.2632 3.79042 34.3191 3.79042C34.3191 3.75424 34.3191 3.71806 34.3191 3.68078C34.4836 3.57113 34.4836 3.57113 34.648 3.57113C34.648 3.53495 34.648 3.49877 34.648 3.46149C34.7426 3.42222 34.8372 3.38296 34.9318 3.3437C35.0463 3.29329 35.0463 3.29329 35.1962 3.18737C35.2505 3.18737 35.3048 3.18737 35.3607 3.18737C35.3607 3.15119 35.3607 3.11501 35.3607 3.07773C35.5252 2.96808 35.5252 2.96808 35.7445 2.96808C35.7445 2.9319 35.7445 2.89571 35.7445 2.85844C35.8322 2.81235 35.9202 2.76675 36.0083 2.72138C36.0573 2.69594 36.1063 2.6705 36.1567 2.64428C36.2927 2.58432 36.2927 2.58432 36.4572 2.58432C36.4572 2.54814 36.4572 2.51195 36.4572 2.47468C36.5114 2.47468 36.5657 2.47468 36.6216 2.47468C36.6216 2.43849 36.6216 2.40231 36.6216 2.36503C36.7523 2.23435 36.8834 2.19894 37.0549 2.13824C37.2174 2.07136 37.3536 1.96958 37.4988 1.87162C37.5531 1.87162 37.6074 1.87162 37.6633 1.87162C37.6633 1.83544 37.6633 1.79926 37.6633 1.76198C37.8145 1.61071 37.9851 1.56641 38.1837 1.49322C38.3208 1.43321 38.4219 1.35861 38.5404 1.26857C38.5766 1.26857 38.6128 1.26857 38.6501 1.26857C38.6501 1.23239 38.6501 1.19621 38.6501 1.15893C38.7225 1.15893 38.7948 1.15893 38.8694 1.15893C38.8694 1.12274 38.8694 1.08656 38.8694 1.04928C38.9417 1.04928 39.0141 1.04928 39.0887 1.04928C39.0887 1.0131 39.0887 0.976916 39.0887 0.939637C39.445 0.775168 39.445 0.775168 39.6917 0.775168C39.6917 0.738985 39.6917 0.702802 39.6917 0.665523C39.7641 0.665523 39.8365 0.665523 39.911 0.665523C39.911 0.629339 39.911 0.593156 39.911 0.555877C40.0015 0.555877 40.0919 0.555877 40.1851 0.555877C40.1851 0.519694 40.1851 0.483511 40.1851 0.446231C40.2756 0.446231 40.366 0.446231 40.4592 0.446231C40.4592 0.410048 40.4592 0.373865 40.4592 0.336586C40.5061 0.329307 40.5529 0.322028 40.6012 0.314528C40.6618 0.304846 40.7224 0.295164 40.7847 0.285189C40.8452 0.275649 40.9056 0.266108 40.9678 0.256279C41.1119 0.242375 41.1119 0.242375 41.1719 0.172117C41.2999 0.153843 41.4278 0.135569 41.5557 0.117294C41.5738 0.0992028 41.5919 0.0811113 41.6105 0.0624715C41.9569 -0.00582008 42.302 -0.000279342 42.6539 0.000367533Z" fill="#3878C8"/>
<path d="M54.604 9.65632C55.201 9.65632 55.798 9.65632 56.4131 9.65632C56.4131 10.5247 56.4131 11.3931 56.4131 12.2878C56.4493 12.2878 56.4855 12.2878 56.5228 12.2878C56.5228 13.5723 56.5228 14.8568 56.5228 16.1802C56.559 16.1802 56.5952 16.1802 56.6324 16.1802C56.6421 16.6999 56.6512 17.2196 56.6598 17.7393C56.6608 17.7982 56.6608 17.7982 56.6618 17.8583C56.6831 19.155 56.6922 20.4513 56.6907 21.7482C56.6906 21.7877 56.6906 21.8273 56.6905 21.8681C56.6899 22.3478 56.6888 22.8275 56.6873 23.3072C56.7234 23.3072 56.7596 23.3072 56.7969 23.3072C56.7969 24.4651 56.7969 25.6229 56.7969 26.8159C56.8331 26.8159 56.8693 26.8159 56.9065 26.8159C56.9065 29.5658 56.9065 32.3157 56.9065 35.1489C56.8704 35.1489 56.8342 35.1489 56.7969 35.1489C56.7969 35.3118 56.7969 35.4746 56.7969 35.6423C56.7607 35.6423 56.7245 35.6423 56.6873 35.6423C56.6879 35.6729 56.6885 35.7034 56.6892 35.7348C56.6926 36.0205 56.6735 36.2916 56.6324 36.5743C56.5962 36.5743 56.5601 36.5743 56.5228 36.5743C56.5228 36.7371 56.5228 36.9 56.5228 37.0677C56.4866 37.0677 56.4504 37.0677 56.4131 37.0677C56.4131 37.1763 56.4131 37.2848 56.4131 37.3967C56.377 37.3967 56.3408 37.3967 56.3035 37.3967C56.3035 37.4509 56.3035 37.5052 56.3035 37.5611C56.2673 37.5611 56.2311 37.5611 56.1938 37.5611C56.1938 37.6697 56.1938 37.7782 56.1938 37.8901C56.1577 37.8901 56.1215 37.8901 56.0842 37.8901C56.0842 37.9805 56.0842 38.071 56.0842 38.1642C56.048 38.1642 56.0118 38.1642 55.9746 38.1642C55.9565 38.3089 55.9384 38.4536 55.9197 38.6028C55.8836 38.6028 55.8474 38.6028 55.8101 38.6028C55.8101 38.6751 55.8101 38.7475 55.8101 38.8221C55.7739 38.8221 55.7377 38.8221 55.7004 38.8221C55.7038 38.865 55.7072 38.908 55.7107 38.9523C55.7073 38.9998 55.7039 39.0472 55.7004 39.0962C55.6462 39.1324 55.5919 39.1685 55.536 39.2058C55.5179 39.2601 55.4998 39.3144 55.4812 39.3703C55.445 39.3703 55.4088 39.3703 55.3715 39.3703C55.3715 39.4426 55.3715 39.515 55.3715 39.5896C55.3353 39.5896 55.2991 39.5896 55.2619 39.5896C55.2438 39.68 55.2257 39.7705 55.207 39.8637C55.1709 39.8637 55.1347 39.8637 55.0974 39.8637C55.0974 39.9361 55.0974 40.0084 55.0974 40.083C55.0612 40.083 55.025 40.083 54.9877 40.083C54.9877 40.1192 54.9877 40.1553 54.9877 40.1926C54.9516 40.1926 54.9154 40.1926 54.8781 40.1926C54.8781 40.265 54.8781 40.3374 54.8781 40.4119C54.8238 40.4481 54.7696 40.4843 54.7136 40.5216C54.6567 40.6117 54.602 40.7032 54.5492 40.7957C54.4635 40.9225 54.4635 40.9225 54.3847 41.015C54.3485 41.015 54.3123 41.015 54.2751 41.015C54.2716 41.0451 54.2682 41.0753 54.2646 41.1064C54.2007 41.2905 54.0863 41.3886 53.9487 41.5257C53.9214 41.553 53.8942 41.5803 53.8661 41.6084C53.8084 41.666 53.7505 41.7233 53.6924 41.7805C53.6041 41.8676 53.5165 41.9553 53.4289 42.0432C53.1928 42.278 52.974 42.4905 52.6852 42.6597C52.649 42.706 52.6128 42.7524 52.5755 42.8001C52.4534 42.949 52.3685 42.9783 52.1918 43.0434C52.1556 43.0977 52.1194 43.152 52.0821 43.2079C52.0098 43.2079 51.9374 43.2079 51.8628 43.2079C51.8628 43.2441 51.8628 43.2802 51.8628 43.3175C51.7737 43.3759 51.6818 43.4301 51.5887 43.482C51.5422 43.511 51.4957 43.5401 51.4478 43.57C51.4016 43.5986 51.3554 43.6273 51.3078 43.6567C51.2613 43.6858 51.2148 43.7148 51.1669 43.7448C51.0405 43.8109 51.0405 43.8109 50.876 43.8109C50.876 43.8471 50.876 43.8833 50.876 43.9206C50.8037 43.9206 50.7313 43.9206 50.6567 43.9206C50.6567 43.9568 50.6567 43.9929 50.6567 44.0302C50.5844 44.0302 50.512 44.0302 50.4375 44.0302C50.4375 44.0664 50.4375 44.1026 50.4375 44.1399C50.2746 44.158 50.1118 44.1761 49.944 44.1947C49.944 44.2309 49.944 44.2671 49.944 44.3043C49.7989 44.3844 49.7305 44.414 49.5603 44.414C49.5603 44.4502 49.5603 44.4863 49.5603 44.5236C49.4517 44.5236 49.3432 44.5236 49.2314 44.5236C49.2314 44.5598 49.2314 44.596 49.2314 44.6333C49.1047 44.6333 48.9781 44.6333 48.8476 44.6333C48.8476 44.6695 48.8476 44.7056 48.8476 44.7429C48.7571 44.7429 48.6667 44.7429 48.5735 44.7429C48.5735 44.7791 48.5735 44.8153 48.5735 44.8526C48.5227 44.8598 48.4719 44.8671 48.4195 44.8746C48.3539 44.8843 48.2882 44.894 48.2206 44.904C48.155 44.9135 48.0895 44.923 48.022 44.9329C47.8674 44.9452 47.8674 44.9452 47.806 45.017C47.6932 45.0345 47.5803 45.0451 47.4667 45.0564C47.3665 45.062 47.3665 45.062 47.3126 45.1267C47.1712 45.1444 47.0297 45.1548 46.8877 45.1661C46.7662 45.1685 46.7662 45.1685 46.7095 45.2363C46.6079 45.2403 46.5062 45.2409 46.4046 45.2397C46.3491 45.2393 46.2936 45.2388 46.2364 45.2383C46.1721 45.2373 46.1721 45.2373 46.1065 45.2363C46.1065 45.2725 46.1065 45.3087 46.1065 45.346C44.4782 45.346 42.85 45.346 41.1724 45.346C41.1724 45.3098 41.1724 45.2736 41.1724 45.2363C41.1335 45.237 41.0945 45.2376 41.0544 45.2383C40.9788 45.239 40.9788 45.239 40.9017 45.2397C40.8515 45.2404 40.8012 45.241 40.7494 45.2417C40.6242 45.2363 40.6242 45.2363 40.5693 45.1815C40.4863 45.1688 40.4028 45.1589 40.3192 45.1507C40.2739 45.1461 40.2286 45.1415 40.1819 45.1367C40.147 45.1334 40.112 45.1301 40.0759 45.1267C40.0759 45.0905 40.0759 45.0543 40.0759 45.017C39.9131 45.017 39.7503 45.017 39.5825 45.017C39.5825 44.9809 39.5825 44.9447 39.5825 44.9074C39.5158 44.9085 39.4491 44.9096 39.3804 44.9108C39.2032 44.9111 39.0426 44.8957 38.8698 44.8526C38.8698 44.8164 38.8698 44.7802 38.8698 44.7429C38.8156 44.748 38.8156 44.748 38.7602 44.7532C38.4136 44.7315 38.0884 44.5518 37.7734 44.414C37.7734 44.3778 37.7734 44.3416 37.7734 44.3043C37.7191 44.3094 37.7191 44.3094 37.6637 44.3146C37.4395 44.3006 37.2686 44.2245 37.0607 44.1399C37.0607 44.1037 37.0607 44.0675 37.0607 44.0302C37.0279 44.0223 36.9951 44.0144 36.9613 44.0062C36.8654 43.9816 36.7709 43.9519 36.6769 43.9206C36.6769 43.8844 36.6769 43.8482 36.6769 43.8109C36.6046 43.8109 36.5322 43.8109 36.4576 43.8109C36.4576 43.7747 36.4576 43.7386 36.4576 43.7013C36.3966 43.6968 36.3355 43.6922 36.2726 43.6876C36.0739 43.6465 36.0739 43.6465 35.9951 43.5334C35.9849 43.4983 35.9747 43.4633 35.9642 43.4272C35.8919 43.4272 35.8195 43.4272 35.7449 43.4272C35.7449 43.391 35.7449 43.3548 35.7449 43.3175C35.6958 43.309 35.6958 43.309 35.6456 43.3004C35.508 43.2571 35.4615 43.1986 35.3612 43.0982C35.3239 43.0892 35.2866 43.0801 35.2481 43.0708C35.1419 43.0434 35.1419 43.0434 35.0322 42.8789C34.9848 42.8507 34.9373 42.8224 34.8883 42.7933C34.8239 42.7543 34.8239 42.7543 34.7581 42.7145C34.7581 42.6783 34.7581 42.6421 34.7581 42.6048C34.7276 42.5901 34.6971 42.5754 34.6656 42.5603C34.4261 42.4373 34.224 42.3165 34.0454 42.1114C34.0454 42.0752 34.0454 42.0391 34.0454 42.0018C34.0135 41.9876 33.9815 41.9735 33.9486 41.9589C33.8163 41.8867 33.7265 41.8071 33.6206 41.7003C33.5869 41.6669 33.5533 41.6335 33.5186 41.5992C33.4424 41.5084 33.4424 41.5084 33.4424 41.3987C33.4096 41.3863 33.3768 41.3739 33.343 41.361C33.1906 41.2696 33.1461 41.1681 33.0586 41.015C33.0224 40.9788 32.9863 40.9426 32.949 40.9053C32.8393 40.7957 32.8393 40.7957 32.7537 40.6518C32.6789 40.5074 32.6789 40.5074 32.5104 40.4119C32.4344 40.2516 32.3844 40.0915 32.3459 39.9185C32.3097 39.9185 32.2736 39.9185 32.2363 39.9185C32.2363 39.8461 32.2363 39.7738 32.2363 39.6992C32.2001 39.6992 32.1639 39.6992 32.1266 39.6992C32.1266 39.663 32.1266 39.6269 32.1266 39.5896C32.0905 39.5896 32.0543 39.5896 32.017 39.5896C31.9369 39.4444 31.9073 39.3761 31.9073 39.2058C31.8712 39.2058 31.835 39.2058 31.7977 39.2058C31.7796 39.0611 31.7615 38.9164 31.7429 38.7672C31.7067 38.7672 31.6705 38.7672 31.6332 38.7672C31.6332 38.713 31.6332 38.6587 31.6332 38.6028C31.597 38.6028 31.5609 38.6028 31.5236 38.6028C31.5236 38.4942 31.5236 38.3857 31.5236 38.2738C31.4874 38.2738 31.4512 38.2738 31.4139 38.2738C31.4139 38.1834 31.4139 38.0929 31.4139 37.9997C31.3778 37.9997 31.3416 37.9997 31.3043 37.9997C31.2862 37.8188 31.2681 37.6379 31.2495 37.4515C31.2133 37.4515 31.1771 37.4515 31.1398 37.4515C31.1398 37.361 31.1398 37.2706 31.1398 37.1774C31.1036 37.1774 31.0675 37.1774 31.0302 37.1774C31.0302 37.0145 31.0302 36.8517 31.0302 36.684C30.994 36.684 30.9578 36.684 30.9205 36.684C30.9205 36.5573 30.9205 36.4307 30.9205 36.3002C31.9879 36.3002 33.0553 36.3002 34.1551 36.3002C34.1551 36.264 34.1551 36.2278 34.1551 36.1906C35.4034 36.1906 36.6517 36.1906 37.9379 36.1906C38.0411 36.3971 38.0596 36.4663 38.0475 36.684C38.0837 36.684 38.1199 36.684 38.1571 36.684C38.1571 36.7563 38.1571 36.8287 38.1571 36.9033C38.2295 36.9394 38.3019 36.9756 38.3764 37.0129C38.3764 37.0672 38.3764 37.1215 38.3764 37.1774C38.4126 37.1774 38.4488 37.1774 38.4861 37.1774C38.5807 37.2675 38.5807 37.2675 38.6848 37.3864C38.7194 37.4252 38.7541 37.464 38.7897 37.504C38.8698 37.616 38.8698 37.616 38.8698 37.7804C38.9422 37.7804 39.0146 37.7804 39.0891 37.7804C39.1816 37.8891 39.273 37.9988 39.3632 38.1094C39.4786 38.1485 39.4786 38.1485 39.5825 38.1642C39.6368 38.2456 39.6368 38.2456 39.6922 38.3286C39.8367 38.3963 39.8367 38.3963 40.0006 38.4486C40.0555 38.4674 40.1105 38.4863 40.1672 38.5058C40.2094 38.5197 40.2517 38.5336 40.2952 38.5479C40.2952 38.5841 40.2952 38.6203 40.2952 38.6576C40.4581 38.6938 40.6209 38.73 40.7886 38.7672C40.7886 38.8034 40.7886 38.8396 40.7886 38.8769C40.861 38.8769 40.9334 38.8769 41.0079 38.8769C41.0079 38.9131 41.0079 38.9492 41.0079 38.9865C41.0984 38.9865 41.1888 38.9865 41.282 38.9865C41.282 39.0227 41.282 39.0589 41.282 39.0962C41.3482 39.0945 41.3482 39.0945 41.4157 39.0927C41.5562 39.0962 41.5562 39.0962 41.611 39.151C41.7386 39.1711 41.8666 39.1895 41.9947 39.2058C41.9947 39.242 41.9947 39.2782 41.9947 39.3155C43.1345 39.3155 44.2743 39.3155 45.4486 39.3155C45.4486 39.2793 45.4486 39.2431 45.4486 39.2058C45.539 39.2058 45.6295 39.2058 45.7227 39.2058C45.7227 39.1696 45.7227 39.1334 45.7227 39.0962C45.9323 39.0182 46.1017 38.9733 46.3257 38.9865C46.3257 38.9503 46.3257 38.9142 46.3257 38.8769C46.4136 38.8492 46.5016 38.8218 46.5896 38.7946C46.663 38.7717 46.663 38.7717 46.738 38.7484C46.874 38.7124 46.874 38.7124 47.0384 38.7124C47.0384 38.6762 47.0384 38.64 47.0384 38.6028C47.1977 38.4921 47.3409 38.4188 47.5318 38.3835C47.5318 38.3473 47.5318 38.3111 47.5318 38.2738C47.6042 38.2738 47.6766 38.2738 47.7511 38.2738C47.7698 38.2212 47.7698 38.2212 47.7888 38.1676C47.8126 38.1303 47.8363 38.093 47.8608 38.0545C47.9522 38.0363 48.0435 38.018 48.1349 37.9997C48.1732 37.9275 48.2095 37.8543 48.2445 37.7804C48.3207 37.6901 48.3207 37.6901 48.4073 37.6031C48.4386 37.5717 48.4699 37.5402 48.5022 37.5078C48.5347 37.4757 48.5673 37.4435 48.6009 37.4104C48.6335 37.3774 48.666 37.3444 48.6996 37.3104C48.7466 37.2636 48.7466 37.2636 48.7945 37.2159C48.8231 37.1875 48.8517 37.159 48.8811 37.1297C48.9572 37.0677 48.9572 37.0677 49.0669 37.0677C49.0669 37.0135 49.0669 36.9592 49.0669 36.9033C49.1031 36.9033 49.1392 36.9033 49.1765 36.9033C49.1946 36.7947 49.2127 36.6862 49.2314 36.5743C49.2675 36.5743 49.3037 36.5743 49.341 36.5743C49.341 36.5381 49.341 36.502 49.341 36.4647C49.3772 36.4647 49.4134 36.4647 49.4506 36.4647C49.4473 36.4285 49.4439 36.3923 49.4404 36.355C49.4544 36.1308 49.5305 35.9599 49.6151 35.752C49.6513 35.752 49.6875 35.752 49.7248 35.752C49.7248 35.6796 49.7248 35.6072 49.7248 35.5327C49.7609 35.5327 49.7971 35.5327 49.8344 35.5327C49.8344 35.3699 49.8344 35.207 49.8344 35.0393C49.8706 35.0393 49.9068 35.0393 49.944 35.0393C49.944 34.9126 49.944 34.786 49.944 34.6555C49.9802 34.6555 50.0164 34.6555 50.0537 34.6555C50.0537 33.9861 50.0537 33.3167 50.0537 32.6271C49.9632 32.6814 49.8728 32.7356 49.7796 32.7915C49.7298 32.8198 49.6801 32.8481 49.6288 32.8772C49.4992 32.9452 49.4992 32.9452 49.4506 33.0657C49.3964 33.0657 49.3421 33.0657 49.2862 33.0657C49.2862 33.1018 49.2862 33.138 49.2862 33.1753C49.1776 33.1934 49.0691 33.2115 48.9572 33.2301C48.9572 33.2663 48.9572 33.3025 48.9572 33.3398C48.8849 33.3398 48.8125 33.3398 48.7379 33.3398C48.7379 33.376 48.7379 33.4121 48.7379 33.4494C48.5928 33.5295 48.5244 33.5591 48.3542 33.5591C48.3542 33.5952 48.3542 33.6314 48.3542 33.6687C48.2847 33.6965 48.2149 33.7238 48.1452 33.7509C48.087 33.7738 48.087 33.7738 48.0276 33.7972C47.9156 33.8332 47.9156 33.8332 47.7511 33.8332C47.7511 33.8694 47.7511 33.9055 47.7511 33.9428C47.6788 33.9428 47.6064 33.9428 47.5318 33.9428C47.5318 33.979 47.5318 34.0152 47.5318 34.0525C47.3867 34.1325 47.3183 34.1621 47.1481 34.1621C47.143 33.2929 47.1391 32.4237 47.1367 31.5545C47.1356 31.1509 47.134 30.7473 47.1315 30.3437C47.1294 29.992 47.1279 29.6403 47.1275 29.2886C47.1272 29.1023 47.1265 28.9161 47.1249 28.7298C47.1233 28.522 47.1231 28.3142 47.1232 28.1064C47.1224 28.0444 47.1216 27.9825 47.1208 27.9187C47.1211 27.8621 47.1214 27.8056 47.1217 27.7474C47.1215 27.6983 47.1213 27.6491 47.1211 27.5984C47.1481 27.4737 47.1481 27.4737 47.2491 27.3744C47.3674 27.3093 47.3674 27.3093 47.5318 27.3093C47.5318 27.2731 47.5318 27.2369 47.5318 27.1996C47.568 27.1996 47.6042 27.1996 47.6415 27.1996C47.6601 27.1538 47.6601 27.1538 47.6792 27.1071C47.7717 26.9441 47.8864 26.8312 48.0252 26.7062C48.0614 26.7062 48.0976 26.7062 48.1349 26.7062C48.1349 26.67 48.1349 26.6338 48.1349 26.5966C48.1711 26.5966 48.2073 26.5966 48.2445 26.5966C48.2445 26.5604 48.2445 26.5242 48.2445 26.4869C48.2807 26.4869 48.3169 26.4869 48.3542 26.4869C48.3542 26.4326 48.3542 26.3784 48.3542 26.3225C48.3904 26.3225 48.4266 26.3225 48.4638 26.3225C48.4819 26.2501 48.5 26.1777 48.5187 26.1032C48.5548 26.1032 48.591 26.1032 48.6283 26.1032C48.6283 26.0308 48.6283 25.9584 48.6283 25.8839C48.6645 25.8839 48.7007 25.8839 48.7379 25.8839C48.7379 25.8477 48.7379 25.8115 48.7379 25.7742C48.7741 25.7742 48.8103 25.7742 48.8476 25.7742C48.8532 25.7392 48.8589 25.7041 48.8647 25.668C48.8772 25.6307 48.8896 25.5934 48.9024 25.5549C48.9567 25.5368 49.011 25.5188 49.0669 25.5001C49.0669 25.4277 49.0669 25.3554 49.0669 25.2808C49.1031 25.2808 49.1392 25.2808 49.1765 25.2808C49.1946 25.1361 49.2127 24.9914 49.2314 24.8422C49.2675 24.8422 49.3037 24.8422 49.341 24.8422C49.341 24.7518 49.341 24.6613 49.341 24.5681C49.3772 24.5681 49.4134 24.5681 49.4506 24.5681C49.4506 24.4415 49.4506 24.3148 49.4506 24.1844C49.4868 24.1844 49.523 24.1844 49.5603 24.1844C49.5586 24.1182 49.5586 24.1182 49.5569 24.0507C49.5603 23.9103 49.5603 23.9103 49.6151 23.8554C49.6278 23.7816 49.6377 23.7072 49.646 23.6327C49.6539 23.5615 49.6618 23.4902 49.6699 23.4168C49.7061 23.4168 49.7423 23.4168 49.7796 23.4168C49.7796 22.6027 49.7796 21.7886 49.7796 20.9498C49.7434 20.9498 49.7072 20.9498 49.6699 20.9498C49.6699 20.787 49.6699 20.6242 49.6699 20.4564C49.6338 20.4564 49.5976 20.4564 49.5603 20.4564C49.4639 20.2095 49.4401 20.0082 49.4506 19.7437C49.4145 19.7437 49.3783 19.7437 49.341 19.7437C49.341 19.6894 49.341 19.6352 49.341 19.5793C49.3048 19.5793 49.2686 19.5793 49.2314 19.5793C49.2059 19.486 49.2059 19.486 49.18 19.3908C49.142 19.2071 49.142 19.2071 49.0669 19.1407C49.0646 19.031 49.0646 18.9214 49.0669 18.8117C49.0307 18.8117 48.9945 18.8117 48.9572 18.8117C48.9572 18.7755 48.9572 18.7394 48.9572 18.7021C48.9211 18.7021 48.8849 18.7021 48.8476 18.7021C48.8476 18.6478 48.8476 18.5935 48.8476 18.5376C48.8137 18.5354 48.7797 18.5331 48.7448 18.5308C48.6283 18.4828 48.6283 18.4828 48.5632 18.3286C48.5187 18.1539 48.5187 18.1539 48.4981 18.0305C48.4709 17.9226 48.4709 17.9226 48.3508 17.866C48.3157 17.8525 48.2807 17.8389 48.2445 17.8249C48.2445 17.7887 48.2445 17.7526 48.2445 17.7153C48.2126 17.7107 48.1807 17.7061 48.1477 17.7014C47.9896 17.6485 47.9267 17.5711 47.8197 17.4446C47.786 17.4056 47.7524 17.3667 47.7177 17.3266C47.6415 17.2219 47.6415 17.2219 47.6415 17.1122C47.6087 17.1066 47.5759 17.1009 47.5421 17.0951C47.4036 17.0516 47.359 16.9942 47.2577 16.8929C47.1672 16.8544 47.0758 16.8178 46.9836 16.7833C46.9293 16.7471 46.8751 16.7109 46.8191 16.6736C46.8191 16.6194 46.8191 16.5651 46.8191 16.5092C46.8915 16.4911 46.9639 16.473 47.0384 16.4544C47.0452 16.4148 47.052 16.3752 47.059 16.3344C47.1151 16.0821 47.1472 15.9432 47.3674 15.7965C47.4074 15.656 47.4074 15.656 47.4222 15.5224C47.4584 15.5224 47.4946 15.5224 47.5318 15.5224C47.5318 15.4138 47.5318 15.3053 47.5318 15.1934C47.568 15.1934 47.6042 15.1934 47.6415 15.1934C47.6415 15.103 47.6415 15.0125 47.6415 14.9193C47.6777 14.9193 47.7139 14.9193 47.7511 14.9193C47.7511 14.7565 47.7511 14.5937 47.7511 14.4259C47.7873 14.4259 47.8235 14.4259 47.8608 14.4259C47.8608 13.9193 47.8608 13.4128 47.8608 12.8909C47.8246 12.8909 47.7884 12.8909 47.7511 12.8909C47.7511 12.7642 47.7511 12.6376 47.7511 12.5071C47.715 12.5071 47.6788 12.5071 47.6415 12.5071C47.6415 12.3443 47.6415 12.1815 47.6415 12.0137C47.6053 12.0137 47.5691 12.0137 47.5318 12.0137C47.5318 11.9413 47.5318 11.869 47.5318 11.7944C47.4957 11.7944 47.4595 11.7944 47.4222 11.7944C47.4222 11.7401 47.4222 11.6859 47.4222 11.6299C47.386 11.6299 47.3498 11.6299 47.3126 11.6299C47.308 11.5598 47.3035 11.4897 47.2988 11.4175C47.2874 11.2981 47.2874 11.2981 47.2577 11.1914C47.1524 11.1042 47.1524 11.1042 47.0384 11.0817C47.0384 11.0093 47.0384 10.937 47.0384 10.8624C47.006 10.8575 46.9736 10.8525 46.9401 10.8474C46.7883 10.7975 46.7375 10.7324 46.6375 10.6089C46.4767 10.415 46.3069 10.2409 46.1221 10.0698C46.0516 9.98526 46.0516 9.98526 46.0516 9.82079C46.1783 9.83888 46.3049 9.85697 46.4354 9.87561C46.4354 9.9118 46.4354 9.94798 46.4354 9.98526C46.562 9.98526 46.6887 9.98526 46.8191 9.98526C46.8191 10.0214 46.8191 10.0576 46.8191 10.0949C46.8915 10.0949 46.9639 10.0949 47.0384 10.0949C47.0384 10.1311 47.0384 10.1673 47.0384 10.2046C47.2013 10.2226 47.3641 10.2407 47.5318 10.2594C47.5318 10.2956 47.5318 10.3317 47.5318 10.369C47.568 10.3645 47.6042 10.36 47.6415 10.3553C47.8724 10.3746 48.0443 10.477 48.2445 10.5883C48.2445 10.6245 48.2445 10.6607 48.2445 10.698C48.2728 10.7047 48.3011 10.7115 48.3302 10.7185C48.3963 10.7355 48.3963 10.7355 48.4638 10.7528C48.5294 10.7686 48.595 10.7844 48.6626 10.8007C48.8476 10.8624 48.8476 10.8624 48.9572 11.0269C49.1157 11.1312 49.2798 11.2188 49.4506 11.301C49.4506 11.3372 49.4506 11.3734 49.4506 11.4107C49.4789 11.4152 49.5072 11.4197 49.5363 11.4244C49.8766 11.5291 50.0578 11.6864 50.273 11.9589C50.3636 11.9974 50.455 12.034 50.5471 12.0685C50.6739 12.185 50.6739 12.185 50.7664 12.2878C50.7845 12.1431 50.8026 11.9984 50.8212 11.8492C50.8574 11.8492 50.8936 11.8492 50.9309 11.8492C50.9309 11.7588 50.9309 11.6683 50.9309 11.5751C50.967 11.5751 51.0032 11.5751 51.0405 11.5751C51.0405 11.5028 51.0405 11.4304 51.0405 11.3558C51.0767 11.3558 51.1129 11.3558 51.1502 11.3558C51.1502 11.2654 51.1502 11.1749 51.1502 11.0817C51.1863 11.0817 51.2225 11.0817 51.2598 11.0817C51.2598 11.0093 51.2598 10.937 51.2598 10.8624C51.296 10.8624 51.3322 10.8624 51.3694 10.8624C51.3694 10.772 51.3694 10.6815 51.3694 10.5883C51.4056 10.5883 51.4418 10.5883 51.4791 10.5883C51.4972 10.4436 51.5153 10.2988 51.5339 10.1497C51.5701 10.1497 51.6063 10.1497 51.6436 10.1497C51.6436 10.0593 51.6436 9.96881 51.6436 9.87561C51.6797 9.87561 51.7159 9.87561 51.7532 9.87561C51.7532 9.83943 51.7532 9.80325 51.7532 9.76597C52.694 9.76597 53.6347 9.76597 54.604 9.76597C54.604 9.72979 54.604 9.6936 54.604 9.65632Z" fill="#FEFEFE"/>
<path d="M40.2953 9.49227C40.4582 9.49227 40.621 9.49227 40.7888 9.49227C40.7888 9.54654 40.7888 9.60081 40.7888 9.65673C40.699 9.7141 40.6073 9.76856 40.5146 9.8212C40.4773 9.86078 40.44 9.90035 40.4016 9.94113C40.2953 10.0405 40.2953 10.0405 40.0761 10.0405C40.0624 10.0722 40.0488 10.104 40.0347 10.1366C39.9568 10.277 39.8673 10.3659 39.7505 10.4756C39.5895 10.6315 39.4737 10.7763 39.3634 10.9725C39.3272 10.9725 39.291 10.9725 39.2537 10.9725C39.2435 11.0318 39.2435 11.0318 39.2332 11.0924C39.1994 11.2443 39.1504 11.378 39.0892 11.5207C39.0531 11.5207 39.0169 11.5207 38.9796 11.5207C38.9796 11.575 38.9796 11.6293 38.9796 11.6852C38.9434 11.6852 38.9072 11.6852 38.87 11.6852C38.87 11.7575 38.87 11.8299 38.87 11.9045C38.8338 11.9045 38.7976 11.9045 38.7603 11.9045C38.7603 11.9949 38.7603 12.0854 38.7603 12.1786C38.7241 12.1786 38.6879 12.1786 38.6507 12.1786C38.6326 12.5947 38.6145 13.0108 38.5958 13.4395C38.5597 13.4395 38.5235 13.4395 38.4862 13.4395C38.4981 13.5464 38.4981 13.5464 38.5102 13.6554C38.5146 13.6954 38.5191 13.7355 38.5237 13.7768C38.5311 13.8787 38.5311 13.8787 38.5958 13.9329C38.6045 14.0224 38.6096 14.1123 38.6132 14.2021C38.6166 14.2835 38.6166 14.2835 38.6201 14.3665C38.6223 14.4235 38.6245 14.4806 38.6267 14.5394C38.629 14.5967 38.6314 14.6539 38.6339 14.713C38.6397 14.855 38.6453 14.997 38.6507 15.139C38.6868 15.139 38.723 15.139 38.7603 15.139C38.7603 15.2295 38.7603 15.3199 38.7603 15.4131C38.7965 15.4131 38.8327 15.4131 38.87 15.4131C38.87 15.4855 38.87 15.5579 38.87 15.6324C38.9061 15.6324 38.9423 15.6324 38.9796 15.6324C38.9796 15.6867 38.9796 15.741 38.9796 15.7969C39.0158 15.7969 39.052 15.7969 39.0892 15.7969C39.0892 15.8693 39.0892 15.9416 39.0892 16.0162C39.1254 16.0162 39.1616 16.0162 39.1989 16.0162C39.1989 16.0885 39.1989 16.1609 39.1989 16.2355C39.2532 16.2355 39.3074 16.2355 39.3634 16.2355C39.3634 16.3078 39.3634 16.3802 39.3634 16.4548C39.3995 16.4548 39.4357 16.4548 39.473 16.4548C39.473 16.509 39.473 16.5633 39.473 16.6192C39.5454 16.6192 39.6177 16.6192 39.6923 16.6192C39.6923 16.6916 39.6923 16.764 39.6923 16.8385C39.6561 16.8385 39.6199 16.8385 39.5827 16.8385C39.5827 16.8747 39.5827 16.9109 39.5827 16.9482C39.5442 16.9583 39.5058 16.9685 39.4662 16.979C39.2745 17.0748 39.182 17.1942 39.0526 17.3615C39.0165 17.4011 39.0165 17.4011 38.9796 17.4416C38.9434 17.4416 38.9072 17.4416 38.87 17.4416C38.87 17.4778 38.87 17.5139 38.87 17.5512C38.7976 17.5512 38.7252 17.5512 38.6507 17.5512C38.6461 17.5817 38.6416 17.6123 38.637 17.6437C38.5608 17.8784 38.4138 18.0198 38.2121 18.1543C38.1226 18.2851 38.0557 18.3932 38.0202 18.5483C37.9928 18.6477 37.9928 18.6477 37.8283 18.7573C37.8102 18.8116 37.7921 18.8659 37.7735 18.9218C37.7373 18.9218 37.7011 18.9218 37.6639 18.9218C37.6639 18.9942 37.6639 19.0665 37.6639 19.1411C37.6277 19.1411 37.5915 19.1411 37.5542 19.1411C37.5542 19.2134 37.5542 19.2858 37.5542 19.3604C37.518 19.3604 37.4818 19.3604 37.4446 19.3604C37.4265 19.5232 37.4084 19.686 37.3897 19.8538C37.3536 19.8538 37.3174 19.8538 37.2801 19.8538C37.2801 19.9623 37.2801 20.0709 37.2801 20.1827C37.2439 20.1827 37.2077 20.1827 37.1704 20.1827C37.1704 20.3094 37.1704 20.436 37.1704 20.5665C37.1343 20.5665 37.0981 20.5665 37.0608 20.5665C37.0608 20.7655 37.0608 20.9645 37.0608 21.1695C37.0246 21.1695 36.9884 21.1695 36.9512 21.1695C36.9512 21.8027 36.9512 22.4359 36.9512 23.0883C36.9873 23.0883 37.0235 23.0883 37.0608 23.0883C37.0608 23.2873 37.0608 23.4863 37.0608 23.6914C37.097 23.6914 37.1332 23.6914 37.1704 23.6914C37.1704 23.818 37.1704 23.9447 37.1704 24.0751C37.2066 24.0751 37.2428 24.0751 37.2801 24.0751C37.2801 24.2018 37.2801 24.3284 37.2801 24.4589C37.3163 24.4589 37.3525 24.4589 37.3897 24.4589C37.4078 24.6398 37.4259 24.8207 37.4446 25.0071C37.4807 25.0071 37.5169 25.0071 37.5542 25.0071C37.5542 25.0795 37.5542 25.1519 37.5542 25.2264C37.5904 25.2264 37.6266 25.2264 37.6639 25.2264C37.6639 25.2807 37.6639 25.335 37.6639 25.3909C37.7 25.3909 37.7362 25.3909 37.7735 25.3909C37.7735 25.4632 37.7735 25.5356 37.7735 25.6102C37.8097 25.6102 37.8459 25.6102 37.8831 25.6102C37.8831 25.6644 37.8831 25.7187 37.8831 25.7746C37.9193 25.7746 37.9555 25.7746 37.9928 25.7746C37.9973 25.8267 38.0018 25.8787 38.0065 25.9323C38.0285 26.1093 38.0285 26.1093 38.1607 26.179C38.2133 26.1959 38.2133 26.1959 38.2669 26.2132C38.2669 26.2494 38.2669 26.2856 38.2669 26.3229C38.3008 26.3263 38.3347 26.3297 38.3697 26.3331C38.4081 26.3478 38.4466 26.3625 38.4862 26.3777C38.5009 26.4161 38.5156 26.4546 38.5307 26.4942C38.625 26.7223 38.7862 26.8838 38.9796 27.0356C39.0524 27.055 39.1255 27.0735 39.1989 27.0904C39.2697 27.2321 39.2605 27.3334 39.2603 27.4921C39.2604 27.5851 39.2604 27.5851 39.2605 27.6799C39.2603 27.7482 39.2601 27.8165 39.2599 27.8868C39.2599 27.9585 39.26 28.0302 39.26 28.104C39.26 28.3009 39.2597 28.4977 39.2593 28.6946C39.2589 28.9002 39.2589 29.1058 39.2588 29.3114C39.2587 29.7009 39.2582 30.0903 39.2577 30.4798C39.2571 30.9232 39.2568 31.3665 39.2565 31.8099C39.2559 32.722 39.2549 33.6342 39.2537 34.5463C39.1633 34.5463 39.0728 34.5463 38.9796 34.5463C38.9796 34.5101 38.9796 34.4739 38.9796 34.4366C38.9219 34.44 38.9219 34.44 38.8631 34.4435C38.6833 34.4357 38.5462 34.3859 38.3766 34.327C38.2673 34.3068 38.1577 34.2879 38.0476 34.2722C38.0476 34.236 38.0476 34.1998 38.0476 34.1625C37.9572 34.1625 37.8667 34.1625 37.7735 34.1625C37.7735 34.1263 37.7735 34.0902 37.7735 34.0529C37.7452 34.0472 37.717 34.0416 37.6878 34.0358C37.507 33.9848 37.3422 33.9096 37.1704 33.8336C37.1704 33.7974 37.1704 33.7612 37.1704 33.7239C37.0076 33.7059 36.8448 33.6878 36.677 33.6691C36.677 33.6329 36.677 33.5968 36.677 33.5595C36.5866 33.5414 36.4961 33.5233 36.4029 33.5047C36.3758 33.4232 36.3758 33.4232 36.3481 33.3402C36.2444 33.3028 36.2444 33.3028 36.1288 33.2854C36.0745 33.2673 36.0203 33.2492 35.9643 33.2305C35.9643 33.1944 35.9643 33.1582 35.9643 33.1209C35.9259 33.1164 35.8875 33.1119 35.8478 33.1072C35.6524 33.0562 35.5208 32.9692 35.3613 32.8468C35.3613 32.8106 35.3613 32.7744 35.3613 32.7371C35.2889 32.7371 35.2166 32.7371 35.142 32.7371C35.0877 32.6557 35.0877 32.6557 35.0324 32.5727C34.9871 32.5557 34.9419 32.5387 34.8953 32.5213C34.7296 32.4509 34.7239 32.3993 34.6486 32.2437C34.6158 32.2358 34.583 32.2279 34.5492 32.2197C34.3657 32.1726 34.2775 32.0541 34.1552 31.9148C34.1552 31.8786 34.1552 31.8424 34.1552 31.8051C34.0828 31.7871 34.0105 31.769 33.9359 31.7503C33.9359 31.7141 33.9359 31.678 33.9359 31.6407C33.8905 31.6353 33.8905 31.6353 33.8442 31.6298C33.6627 31.5673 33.5639 31.457 33.4288 31.322C33.3554 31.2503 33.3554 31.2503 33.2806 31.177C33.1684 31.0376 33.1684 31.0376 33.1684 30.8183C33.096 30.7822 33.0237 30.746 32.9491 30.7087C32.9491 30.6725 32.9491 30.6363 32.9491 30.599C32.9163 30.5945 32.8835 30.59 32.8497 30.5853C32.6928 30.5316 32.6468 30.4676 32.5653 30.3249C32.5653 30.2526 32.5653 30.1802 32.5653 30.1056C32.5314 30.0989 32.4975 30.0921 32.4625 30.0851C32.346 30.0508 32.346 30.0508 32.2364 29.9412C32.2364 29.8688 32.2364 29.7964 32.2364 29.7219C32.164 29.6857 32.0917 29.6495 32.0171 29.6122C32.0171 29.5761 32.0171 29.5399 32.0171 29.5026C31.9809 29.5026 31.9447 29.5026 31.9075 29.5026C31.8803 29.3126 31.8803 29.3126 31.8526 29.1188C31.8165 29.1188 31.7803 29.1188 31.743 29.1188C31.743 29.0826 31.743 29.0465 31.743 29.0092C31.7068 29.0092 31.6706 29.0092 31.6333 29.0092C31.6333 28.9549 31.6333 28.9006 31.6333 28.8447C31.5972 28.8447 31.561 28.8447 31.5237 28.8447C31.5237 28.7724 31.5237 28.7 31.5237 28.6254C31.4875 28.6254 31.4513 28.6254 31.4141 28.6254C31.3361 28.4436 31.283 28.2722 31.2496 28.0772C31.2134 28.0772 31.1772 28.0772 31.1399 28.0772C31.1399 28.0229 31.1399 27.9686 31.1399 27.9127C31.1038 27.9127 31.0676 27.9127 31.0303 27.9127C31.0303 27.8404 31.0303 27.768 31.0303 27.6934C30.9941 27.6934 30.9579 27.6934 30.9206 27.6934C30.9206 27.6392 30.9206 27.5849 30.9206 27.529C30.8845 27.529 30.8483 27.529 30.811 27.529C30.811 27.4204 30.811 27.3119 30.811 27.2C30.7748 27.2 30.7386 27.2 30.7014 27.2C30.6833 27.0372 30.6652 26.8744 30.6465 26.7066C30.6104 26.7066 30.5742 26.7066 30.5369 26.7066C30.5369 26.5981 30.5369 26.4895 30.5369 26.3777C30.5007 26.3777 30.4645 26.3777 30.4272 26.3777C30.4272 26.2872 30.4272 26.1968 30.4272 26.1036C30.3911 26.1036 30.3549 26.1036 30.3176 26.1036C30.2212 25.8567 30.1974 25.6553 30.208 25.3909C30.1718 25.3909 30.1356 25.3909 30.0983 25.3909C30.0532 25.041 30.0369 24.7019 30.0435 24.3492C30.0073 24.3492 29.9711 24.3492 29.9338 24.3492C29.9338 22.8657 29.9338 21.3822 29.9338 19.8538C29.97 19.8538 30.0062 19.8538 30.0435 19.8538C30.0428 19.8226 30.0422 19.7914 30.0416 19.7593C30.0384 19.4918 30.049 19.2398 30.0983 18.9766C30.1164 18.9585 30.1345 18.9404 30.1531 18.9218C30.1733 18.7942 30.1916 18.6662 30.208 18.538C30.2441 18.538 30.2803 18.538 30.3176 18.538C30.3176 18.4476 30.3176 18.3571 30.3176 18.2639C30.3538 18.2639 30.39 18.2639 30.4272 18.2639C30.4272 18.1554 30.4272 18.0468 30.4272 17.935C30.4634 17.935 30.4996 17.935 30.5369 17.935C30.5369 17.8445 30.5369 17.7541 30.5369 17.6609C30.5731 17.6609 30.6093 17.6609 30.6465 17.6609C30.6479 17.6303 30.6494 17.5998 30.6508 17.5684C30.6752 17.2397 30.759 17.0157 30.9206 16.7289C30.9568 16.7289 30.993 16.7289 31.0303 16.7289C31.0303 16.6384 31.0303 16.548 31.0303 16.4548C31.0665 16.4548 31.1027 16.4548 31.1399 16.4548C31.1399 16.3824 31.1399 16.31 31.1399 16.2355C31.1761 16.2355 31.2123 16.2355 31.2496 16.2355C31.2541 16.1993 31.2586 16.1631 31.2633 16.1258C31.318 15.9071 31.418 15.7209 31.5237 15.5228C31.5599 15.5228 31.5961 15.5228 31.6333 15.5228C31.6333 15.4504 31.6333 15.378 31.6333 15.3035C31.6695 15.3035 31.7057 15.3035 31.743 15.3035C31.7486 15.2605 31.7543 15.2175 31.7601 15.1733C31.7978 15.0294 31.7978 15.0294 31.9623 14.9197C32.002 14.8068 32.002 14.8068 32.0171 14.7004C32.0533 14.7004 32.0895 14.7004 32.1268 14.7004C32.1268 14.6642 32.1268 14.6281 32.1268 14.5908C32.2353 14.5636 32.2353 14.5636 32.346 14.536C32.3511 14.4766 32.3511 14.4766 32.3563 14.416C32.4147 14.2141 32.5241 14.1314 32.675 13.9877C32.6985 13.9465 32.7221 13.9054 32.7463 13.8629C32.8613 13.6785 33.0044 13.533 33.1577 13.3808C33.1884 13.35 33.2192 13.3191 33.2509 13.2873C33.3157 13.2224 33.3807 13.1576 33.4458 13.093C33.545 12.9944 33.6436 12.8952 33.7421 12.796C33.8054 12.7328 33.8687 12.6696 33.932 12.6065C33.9613 12.577 33.9905 12.5475 34.0207 12.5172C34.1826 12.3573 34.341 12.235 34.539 12.1238C34.5932 12.0695 34.5932 12.0695 34.6486 12.0141C34.8243 11.8384 35.0067 11.7305 35.2517 11.6852C35.2517 11.649 35.2517 11.6128 35.2517 11.5755C35.2878 11.5755 35.324 11.5755 35.3613 11.5755C35.3613 11.5393 35.3613 11.5032 35.3613 11.4659C35.4698 11.4478 35.5784 11.4297 35.6902 11.4111C35.6902 11.3749 35.6902 11.3387 35.6902 11.3014C35.7445 11.3014 35.7988 11.3014 35.8547 11.3014C35.8547 11.2652 35.8547 11.2291 35.8547 11.1918C35.8909 11.1918 35.9271 11.1918 35.9643 11.1918C35.9643 11.1556 35.9643 11.1194 35.9643 11.0821C36.1095 11.0021 36.1779 10.9725 36.3481 10.9725C36.3481 10.9363 36.3481 10.9001 36.3481 10.8628C36.4165 10.835 36.485 10.8077 36.5537 10.7806C36.5919 10.7653 36.63 10.7501 36.6693 10.7343C36.7867 10.6984 36.7867 10.6984 37.006 10.6984C37.0241 10.626 37.0422 10.5536 37.0608 10.4791C37.2236 10.4429 37.3865 10.4067 37.5542 10.3694C37.5542 10.3332 37.5542 10.2971 37.5542 10.2598C37.8256 10.2326 37.8256 10.2326 38.1024 10.205C38.1024 10.1688 38.1024 10.1326 38.1024 10.0953C38.1929 10.0953 38.2834 10.0953 38.3766 10.0953C38.3766 10.0591 38.3766 10.023 38.3766 9.98567C38.5032 9.98567 38.6298 9.98567 38.7603 9.98567C38.7603 9.94949 38.7603 9.9133 38.7603 9.87603C38.8689 9.87603 38.9774 9.87603 39.0892 9.87603C39.0892 9.83984 39.0892 9.80366 39.0892 9.76638C39.3563 9.66277 39.5949 9.63473 39.8773 9.62247C39.9177 9.62035 39.958 9.61823 39.9996 9.61605C40.0982 9.61093 40.1968 9.60636 40.2953 9.60191C40.2953 9.56573 40.2953 9.52955 40.2953 9.49227Z" fill="#FEFEFE"/>
<path d="M40.1855 24.0749C42.2842 24.0749 44.3828 24.0749 46.545 24.0749C46.545 27.4942 46.545 30.9134 46.545 34.4364C46.4364 34.4364 46.3279 34.4364 46.2161 34.4364C46.2161 34.4725 46.2161 34.5087 46.2161 34.546C46.1256 34.546 46.0351 34.546 45.9419 34.546C45.9419 34.5822 45.9419 34.6184 45.9419 34.6557C45.8334 34.6557 45.7248 34.6557 45.613 34.6557C45.613 34.6918 45.613 34.728 45.613 34.7653C45.414 34.7653 45.215 34.7653 45.01 34.7653C45.01 34.8015 45.01 34.8377 45.01 34.8749C43.4903 34.8749 41.9706 34.8749 40.4048 34.8749C40.4048 34.8388 40.4048 34.8026 40.4048 34.7653C40.3687 34.7653 40.3325 34.7653 40.2952 34.7653C40.2952 34.7291 40.2952 34.6929 40.2952 34.6557C40.259 34.6557 40.2228 34.6557 40.1855 34.6557C40.1855 31.164 40.1855 27.6723 40.1855 24.0749Z" fill="#FEFEFE"/>
<path d="M43.485 8.97101C43.5758 8.96951 43.5758 8.96951 43.6685 8.96798C44.0699 8.97095 44.376 9.04106 44.7356 9.21772C44.7977 9.24676 44.8598 9.27581 44.9239 9.30573C45.5693 9.64566 46.1673 10.1025 46.5996 10.6979C46.5996 10.7703 46.5996 10.8427 46.5996 10.9172C46.6358 10.9172 46.672 10.9172 46.7092 10.9172C46.9674 11.2423 47.0885 11.5917 47.1729 11.9933C47.1898 12.1202 47.1898 12.1202 47.2575 12.1781C47.2623 12.2878 47.2633 12.3976 47.2628 12.5073C47.2626 12.5739 47.2625 12.6405 47.2623 12.7091C47.2618 12.7793 47.2614 12.8494 47.2609 12.9217C47.2606 12.992 47.2604 13.0624 47.2601 13.1349C47.2595 13.3094 47.2586 13.4839 47.2575 13.6584C47.2213 13.6584 47.1851 13.6584 47.1478 13.6584C47.1433 13.7285 47.1388 13.7986 47.1341 13.8708C47.05 14.5993 46.611 15.2593 46.1162 15.7791C46.0061 15.8959 45.9078 16.017 45.8081 16.1425C45.6008 16.3817 45.3532 16.4991 45.0645 16.6188C45.0186 16.6381 44.9727 16.6574 44.9253 16.6773C44.8028 16.7237 44.685 16.7577 44.5574 16.7867C44.3643 16.8162 44.3643 16.8162 44.297 16.8929C43.57 16.9945 42.7426 17.0578 42.0493 16.7833C41.9837 16.7584 41.9181 16.7335 41.8506 16.7079C41.7895 16.6785 41.7284 16.6491 41.6655 16.6188C41.6255 16.5997 41.5854 16.5806 41.5441 16.561C41.285 16.429 41.1038 16.2961 40.9299 16.062C40.8384 15.9491 40.8384 15.9491 40.6849 15.8333C40.3154 15.5321 40.0204 15.0492 39.8516 14.6054C39.8045 14.4819 39.8045 14.4819 39.7453 14.3741C39.5328 13.9423 39.5527 13.5065 39.5597 13.0365C39.5617 12.8969 39.5619 12.7573 39.5619 12.6176C39.5625 12.5284 39.5631 12.4391 39.5639 12.3499C39.564 12.3084 39.5641 12.2669 39.5642 12.2241C39.568 12.0149 39.5838 11.8647 39.6919 11.6847C39.7129 11.5756 39.7317 11.4659 39.7467 11.3558C39.7829 11.3558 39.8191 11.3558 39.8564 11.3558C39.8643 11.314 39.8722 11.2721 39.8804 11.229C39.9112 11.0817 39.9112 11.0817 39.966 10.9172C40.0022 10.9172 40.0384 10.9172 40.0757 10.9172C40.0904 10.8867 40.1051 10.8562 40.1202 10.8247C40.2657 10.5414 40.4352 10.3189 40.6616 10.0949C40.6908 10.0659 40.72 10.037 40.75 10.0071C41.2804 9.49183 41.2804 9.49183 41.6655 9.49183C41.6655 9.45565 41.6655 9.41946 41.6655 9.38218C41.7924 9.32316 41.9195 9.26993 42.0493 9.21772C42.0935 9.198 42.1378 9.17828 42.1834 9.15797C42.6152 8.99264 43.0259 8.97498 43.485 8.97101Z" fill="#AFF23B"/>
<path d="M40.2952 18.5371C42.3576 18.5371 44.4201 18.5371 46.545 18.5371C46.545 20.0025 46.545 21.4679 46.545 22.9778C44.4464 22.9778 42.3478 22.9778 40.1855 22.9778C40.1855 21.5485 40.1855 20.1193 40.1855 18.6468C40.2217 18.6468 40.2579 18.6468 40.2952 18.6468C40.2952 18.6106 40.2952 18.5744 40.2952 18.5371Z" fill="#FDFDFE"/>
<path d="M48.5729 60.4067C49.5904 61.2523 50.2389 62.2641 50.5467 63.547C50.5467 63.5832 50.5467 63.6194 50.5467 63.6567C49.9859 63.6567 49.4251 63.6567 48.8472 63.6567C48.793 63.5244 48.7387 63.3921 48.6828 63.2558C48.5112 62.8552 48.3073 62.511 48.0249 62.1765C47.9924 62.1379 47.96 62.0993 47.9266 62.0595C47.1501 61.2152 45.9479 60.7273 44.8182 60.6753C43.3971 60.6383 42.2467 60.9475 41.1609 61.8985C40.3302 62.6879 39.8167 63.8632 39.7496 65.0075C39.7487 65.0502 39.7477 65.0929 39.7466 65.1369C39.7445 65.1898 39.7424 65.2426 39.7402 65.2971C39.7103 66.6608 40.0781 67.9512 41.0076 68.9745C41.0372 69.0092 41.0668 69.0439 41.0973 69.0796C41.8657 69.9255 43.0605 70.3056 44.171 70.3605C45.535 70.4004 46.7849 70.0163 47.8056 69.0841C48.4059 68.5018 48.6608 67.8453 48.9569 67.0557C47.3105 67.0557 45.6642 67.0557 43.968 67.0557C43.968 66.5491 43.968 66.0426 43.968 65.5207C46.1933 65.5207 48.4185 65.5207 50.7112 65.5207C50.7112 67.3271 50.1311 68.989 48.8472 70.2902C47.664 71.4581 46.0778 71.9985 44.4374 72.0103C42.6266 71.9958 40.9886 71.3597 39.7105 70.0642C38.8975 69.2079 38.4126 68.1447 38.1568 67.0009C38.1433 66.9406 38.1298 66.8803 38.1159 66.8182C37.8071 65.0913 38.1257 63.1901 39.0995 61.7207C39.2191 61.5574 39.3431 61.4002 39.4725 61.2445C39.5114 61.1973 39.5503 61.1501 39.5903 61.1014C40.3415 60.2282 41.3286 59.5949 42.433 59.2708C42.4715 59.2594 42.51 59.248 42.5498 59.2362C44.5717 58.6673 46.9324 59.0856 48.5729 60.4067Z" fill="#B0F33B"/>
<path d="M59.3872 63.2817C60.5444 64.4751 60.7441 65.9428 60.7441 67.5489C56.6735 67.5761 56.6735 67.5761 52.5206 67.6037C52.7937 68.6277 53.1544 69.3786 54.0557 69.9611C54.911 70.4478 55.8955 70.515 56.8401 70.2847C57.6118 70.0678 58.1552 69.6484 58.6608 69.0291C58.6931 68.9716 58.6931 68.9716 58.726 68.913C58.8253 68.8098 58.8253 68.8098 58.9949 68.785C59.063 68.7861 59.131 68.7872 59.2011 68.7884C59.2374 68.7887 59.2737 68.7891 59.311 68.7894C59.4267 68.7906 59.5423 68.7934 59.6579 68.7961C59.7364 68.7972 59.8149 68.7982 59.8934 68.7991C60.0856 68.8016 60.2778 68.8053 60.47 68.8098C60.3078 69.7454 59.489 70.6013 58.749 71.143C57.6104 71.9354 56.1858 72.1541 54.8335 71.9279C53.8601 71.7437 53.0013 71.263 52.3014 70.5642C52.2591 70.5226 52.2168 70.4809 52.1733 70.438C51.5096 69.746 51.0562 68.7744 50.9308 67.823C50.9248 67.7795 50.9188 67.736 50.9126 67.6911C50.7465 66.2912 51.0461 64.8613 51.9039 63.725C52.7402 62.6646 53.8967 62.0912 55.21 61.8745C56.7726 61.7036 58.2559 62.1854 59.3872 63.2817ZM53.343 64.3692C52.8952 64.885 52.668 65.4056 52.5206 66.0687C54.7097 66.0687 56.8988 66.0687 59.1542 66.0687C58.9543 65.169 58.547 64.4121 57.7665 63.8929C57.1594 63.5225 56.5561 63.3607 55.8477 63.3653C55.7971 63.3656 55.7464 63.3659 55.6943 63.3662C54.7768 63.3825 54.0015 63.7259 53.343 64.3692Z" fill="#B0F33B"/>
<path d="M69.2748 63.196C70.2476 64.1725 70.7273 65.4982 70.7294 66.8635C70.7292 66.9088 70.729 66.9541 70.7288 67.0008C70.729 67.0478 70.7292 67.0948 70.7294 67.1432C70.7289 67.4873 70.7289 67.4873 70.6671 67.549C70.561 67.5543 70.4546 67.5557 70.3483 67.5556C70.2791 67.5557 70.2098 67.5558 70.1384 67.5559C70.061 67.5557 69.9835 67.5555 69.906 67.5553C69.825 67.5553 69.744 67.5553 69.6629 67.5553C69.4423 67.5553 69.2217 67.555 69.001 67.5546C68.7707 67.5543 68.5403 67.5542 68.31 67.5542C67.8735 67.554 67.4371 67.5535 67.0006 67.553C66.5038 67.5524 66.0071 67.5521 65.5103 67.5518C64.4881 67.5512 63.4659 67.5503 62.4437 67.549C62.4866 67.6892 62.5298 67.8293 62.573 67.9694C62.5851 68.0088 62.5971 68.0482 62.6095 68.0888C62.8794 68.9599 63.3727 69.5959 64.1753 70.0396C65.0481 70.4722 66.069 70.5334 66.994 70.2354C67.5214 70.0297 68.2278 69.719 68.4768 69.1789C68.5539 69.0239 68.6168 68.9238 68.7483 68.81C69.0398 68.7475 69.3234 68.7633 69.6186 68.7791C69.699 68.7816 69.7794 68.7839 69.8598 68.7859C70.0559 68.7913 70.2518 68.7998 70.4478 68.81C70.2368 69.5221 69.8185 70.0962 69.2966 70.6191C69.255 70.6613 69.2134 70.7035 69.1706 70.747C68.2215 71.6573 66.9574 72.0193 65.6671 72.0091C64.5039 71.9793 63.4479 71.5846 62.5533 70.8384C62.5004 70.7964 62.4475 70.7545 62.3929 70.7112C61.4438 69.9166 60.9695 68.641 60.8538 67.4394C60.776 65.9175 61.148 64.5375 62.1696 63.3825C62.213 63.3323 62.213 63.3323 62.2574 63.281C63.0748 62.3992 64.3176 61.9124 65.5031 61.8494C66.9278 61.8337 68.2269 62.1881 69.2748 63.196ZM63.2112 64.479C62.8677 64.904 62.4985 65.5013 62.4985 66.0688C64.6876 66.0688 66.8767 66.0688 69.1321 66.0688C68.8849 65.0801 68.4863 64.3675 67.6181 63.8205C67.3171 63.6414 67.005 63.5224 66.6651 63.4373C66.6248 63.4269 66.5846 63.4166 66.5432 63.4059C65.2855 63.2131 64.0901 63.5305 63.2112 64.479Z" fill="#B0F33B"/>
<path d="M26.7938 63.2014C27.8631 64.2965 28.2503 65.7207 28.2424 67.2178C28.2332 67.3848 28.2332 67.3848 28.1783 67.5493C25.4646 67.5493 22.7509 67.5493 19.9549 67.5493C20.3099 68.6851 20.6387 69.4498 21.6904 70.0437C22.561 70.4739 23.5837 70.5325 24.5052 70.2356C25.0326 70.03 25.739 69.7192 25.988 69.1792C26.0651 69.0242 26.128 68.924 26.2595 68.8102C26.551 68.7478 26.8346 68.7636 27.1298 68.7794C27.2102 68.7819 27.2906 68.7841 27.371 68.7861C27.5672 68.7915 27.7631 68.8 27.959 68.8102C27.7538 69.4428 27.4154 69.9628 26.9722 70.4549C26.9346 70.4977 26.8969 70.5405 26.8581 70.5847C26.083 71.4159 24.9083 71.9347 23.7782 71.9967C22.2886 72.0447 20.9622 71.673 19.8399 70.662C18.897 69.7776 18.4113 68.5069 18.3513 67.2332C18.3075 65.8443 18.6651 64.5422 19.5917 63.4821C19.6753 63.3932 19.7597 63.3053 19.8453 63.2183C19.8829 63.1799 19.9206 63.1415 19.9594 63.102C21.8355 61.3164 24.9483 61.5035 26.7938 63.2014ZM20.6676 64.534C20.3438 64.9641 20.0097 65.5136 20.0097 66.0691C22.1988 66.0691 24.3879 66.0691 26.6433 66.0691C26.3473 65.0331 25.959 64.3215 25.0427 63.7658C23.6039 62.9788 21.742 63.3144 20.6676 64.534Z" fill="#1F7AEC"/>
<path d="M71.7633 58.6131C72.288 58.6131 72.8126 58.6131 73.3532 58.6131C73.3532 61.0555 73.3532 63.4978 73.3532 66.0142C74.5975 66.1088 74.5975 66.1088 75.039 65.5996C75.1266 65.4834 75.1266 65.4834 75.1863 65.3719C75.3226 65.1404 75.478 64.9314 75.642 64.719C75.6968 64.6456 75.7515 64.5722 75.8061 64.4986C75.9343 64.3266 76.0638 64.1556 76.1941 63.9851C76.2304 63.9375 76.2666 63.8899 76.304 63.8408C76.3791 63.743 76.455 63.6458 76.5317 63.5491C76.7203 63.3088 76.8841 63.0772 77.0209 62.8036C77.3246 62.2346 77.3246 62.2346 77.6293 62.0669C78.2408 61.9136 78.9286 62.0045 79.5481 62.0669C79.4837 62.2411 79.4172 62.385 79.3027 62.5312C79.2755 62.5664 79.2482 62.6016 79.2201 62.6379C79.1904 62.6756 79.1607 62.7134 79.1301 62.7522C79.0652 62.8359 79.0003 62.9195 78.9355 63.0032C78.9012 63.0472 78.867 63.0912 78.8317 63.1365C78.6521 63.3681 78.4749 63.6016 78.2975 63.835C78.223 63.9328 78.1485 64.0307 78.0739 64.1286C78.0367 64.1774 77.9995 64.2263 77.9612 64.2766C77.813 64.471 77.6647 64.6653 77.5163 64.8595C77.4437 64.9548 77.3711 65.0502 77.2988 65.1457C77.1114 65.3931 76.9222 65.6386 76.7297 65.882C76.6527 65.9809 76.5756 66.0798 76.4986 66.1786C76.4619 66.2242 76.4251 66.2697 76.3873 66.3167C76.3543 66.3593 76.3214 66.402 76.2875 66.4459C76.258 66.4831 76.2286 66.5203 76.1983 66.5586C76.134 66.6746 76.134 66.6746 76.1881 66.8132C76.2801 66.9863 76.3959 67.1342 76.5192 67.2854C76.5737 67.3535 76.6281 67.4216 76.6826 67.4897C76.7116 67.5258 76.7406 67.5619 76.7705 67.5992C76.9319 67.8015 77.0903 68.0061 77.249 68.2105C77.2817 68.2525 77.3143 68.2945 77.348 68.3378C77.6689 68.7509 77.9876 69.1656 78.3061 69.5807C78.3496 69.6373 78.3931 69.694 78.438 69.7524C78.471 69.7954 78.471 69.7954 78.5046 69.8392C78.6409 70.0163 78.7779 70.1928 78.9155 70.3689C79.9319 71.6698 79.9319 71.6698 79.9319 71.7706C79.6599 71.7856 79.3881 71.7965 79.1158 71.8037C79.0234 71.8067 78.931 71.8108 78.8387 71.8161C78.0753 71.8584 78.0753 71.8584 77.7966 71.6493C77.6698 71.495 77.5668 71.3391 77.4649 71.1675C77.4063 71.09 77.3468 71.0132 77.2858 70.9375C77.2312 70.8658 77.1767 70.794 77.1222 70.7221C77.0608 70.6414 76.9995 70.5608 76.9381 70.4801C76.8919 70.4193 76.8919 70.4193 76.8448 70.3573C76.6956 70.1611 76.5457 69.9653 76.3958 69.7695C76.3367 69.6922 76.2775 69.6148 76.2183 69.5374C76.1889 69.499 76.1596 69.4606 76.1293 69.421C76.038 69.3016 75.9468 69.1822 75.8555 69.0628C75.7946 68.9832 75.7337 68.9035 75.6729 68.8238C75.6435 68.7854 75.6141 68.7469 75.5838 68.7073C75.4442 68.5248 75.3044 68.3424 75.164 68.1604C75.1388 68.1277 75.1135 68.0949 75.0875 68.0612C75.0198 67.9734 74.952 67.8857 74.8841 67.7981C74.8092 67.6992 74.7377 67.5976 74.6689 67.4944C74.2347 67.4763 73.8005 67.4582 73.3532 67.4396C73.3532 68.8688 73.3532 70.298 73.3532 71.7706C72.8285 71.7706 72.3039 71.7706 71.7633 71.7706C71.7633 67.4286 71.7633 63.0866 71.7633 58.6131Z" fill="#B0F33B"/>
<path d="M85.8976 62.8228C85.9371 62.8629 85.9766 62.9029 86.0173 62.9442C86.0494 62.9758 86.0816 63.0074 86.1147 63.0399C86.6022 63.5572 86.7227 64.2354 86.7848 64.9178C86.2782 64.9178 85.7717 64.9178 85.2497 64.9178C85.1955 64.7007 85.1412 64.4836 85.0853 64.26C84.8322 63.8279 84.5085 63.5887 84.031 63.4357C83.2034 63.2346 82.2663 63.2321 81.5186 63.6865C81.2932 63.856 81.118 64.0461 81.0284 64.3148C80.9836 64.8407 80.9836 64.8407 81.1929 65.3016C81.7781 65.7698 82.5644 65.8706 83.2834 65.9912C85.863 66.4273 85.863 66.4273 86.5535 67.351C87.0009 68.0506 87.0694 68.8347 86.9448 69.6446C86.7694 70.3671 86.3483 70.942 85.7318 71.3505C84.5818 72.0357 83.135 72.1686 81.8364 71.882C80.9481 71.637 80.1588 71.2026 79.6649 70.3973C79.3872 69.8876 79.2192 69.3413 79.2192 68.7554C79.7258 68.7554 80.2324 68.7554 80.7543 68.7554C80.8086 68.9454 80.8086 68.9454 80.8639 69.1392C81.101 69.7132 81.434 70.0452 81.9951 70.3016C82.7199 70.5704 83.709 70.5833 84.4274 70.2905C84.8097 70.1147 85.0996 69.8965 85.3046 69.523C85.4079 69.2054 85.4124 68.837 85.2874 68.5259C85.0273 68.0757 84.5027 67.9077 84.0323 67.7681C83.6004 67.6553 83.1602 67.5813 82.721 67.5026C81.6409 67.3078 80.4654 67.0846 79.7735 66.1481C79.49 65.6962 79.4196 65.2897 79.4214 64.7636C79.4205 64.7124 79.4196 64.6612 79.4187 64.6085C79.4182 63.9281 79.6462 63.3929 80.0906 62.8789C81.5238 61.4786 84.4631 61.4434 85.8976 62.8228Z" fill="#B0F33B"/>
<path d="M10.8985 62.8173C11.5723 63.4755 12.0318 64.4311 12.0664 65.3805C12.0683 65.5479 12.0683 65.7153 12.0678 65.8828C12.0678 65.9465 12.0678 66.0102 12.0678 66.0758C12.0677 66.2858 12.0673 66.4958 12.0669 66.7058C12.0668 66.8516 12.0667 66.9974 12.0666 67.1432C12.0665 67.4874 12.066 67.8317 12.0655 68.1759C12.0649 68.568 12.0646 68.96 12.0643 69.3521C12.0637 70.1582 12.0627 70.9644 12.0615 71.7705C11.555 71.7705 11.0484 71.7705 10.5265 71.7705C10.5254 71.604 10.5243 71.4376 10.5232 71.2661C10.5195 70.7131 10.5153 70.1602 10.5107 69.6072C10.508 69.2723 10.5055 68.9374 10.5034 68.6025C10.5013 68.2786 10.4988 67.9548 10.4959 67.631C10.4949 67.5081 10.4941 67.3852 10.4934 67.2623C10.5038 65.5051 10.5038 65.5051 9.70415 63.9857C9.13555 63.4642 8.44427 63.332 7.69605 63.3618C6.98288 63.4113 6.37524 63.7266 5.88025 64.2358C5.10678 65.1493 5.07405 66.1541 5.07098 67.2947C5.07005 67.4241 5.06906 67.5534 5.06799 67.6828C5.0654 68.0213 5.06376 68.3598 5.06232 68.6983C5.06068 69.0445 5.05813 69.3907 5.05566 69.7369C5.05096 70.4148 5.04735 71.0926 5.04421 71.7705C4.51955 71.7705 3.9949 71.7705 3.45435 71.7705C3.45435 68.5683 3.45435 65.3661 3.45435 62.0669C3.83427 62.0669 4.21419 62.0669 4.60562 62.0669C4.74131 62.7453 4.74131 62.7453 4.87974 63.4374C5.06864 63.2496 5.06864 63.2496 5.25151 63.056C5.9542 62.2974 6.97005 61.9227 7.98494 61.8531C9.08416 61.8199 10.0759 62.0475 10.8985 62.8173Z" fill="#1F7AEC"/>
<path d="M15.5146 60.0386C15.5146 60.7079 15.5146 61.3773 15.5146 62.067C16.5277 62.067 17.5408 62.067 18.5847 62.067C18.5847 62.5374 18.5847 63.0078 18.5847 63.4924C17.5715 63.4924 16.5584 63.4924 15.5146 63.4924C15.5212 64.3741 15.5212 64.3741 15.5287 65.2558C15.532 65.6158 15.5352 65.9757 15.5377 66.3357C15.5397 66.6261 15.5423 66.9165 15.5452 67.2069C15.5462 67.3174 15.547 67.4278 15.5477 67.5383C15.5383 68.7844 15.5383 68.7844 16.1176 69.8518C16.8796 70.3602 17.7592 70.313 18.6395 70.3452C18.6395 70.8156 18.6395 71.286 18.6395 71.7706C18.3822 71.7757 18.1251 71.7801 17.8679 71.7827C17.7808 71.7838 17.6937 71.7852 17.6066 71.7872C16.5783 71.8093 15.6071 71.6389 14.8327 70.9037C14.2034 70.2275 13.9698 69.4424 13.9733 68.5337C13.9733 68.4791 13.9733 68.4245 13.9733 68.3682C13.9733 68.1885 13.9738 68.0087 13.9742 67.829C13.9743 67.7041 13.9744 67.5792 13.9744 67.4543C13.9746 67.126 13.9752 66.7978 13.9758 66.4695C13.9763 66.1344 13.9766 65.7992 13.9769 65.4641C13.9774 64.8069 13.9784 64.1496 13.9795 63.4924C13.4187 63.4924 12.8579 63.4924 12.28 63.4924C12.28 63.1086 12.28 63.1086 12.3545 62.9915C12.3888 62.9596 12.4231 62.9276 12.4584 62.8947C12.4963 62.8583 12.5341 62.822 12.5731 62.7845C12.6333 62.7295 12.6333 62.7295 12.6946 62.6735C12.7725 62.6 12.8502 62.5264 12.9278 62.4527C12.9857 62.3981 12.9857 62.3981 13.0447 62.3423C13.1882 62.2009 13.3185 62.0503 13.4495 61.8973C13.591 61.7357 13.7438 61.5865 13.8973 61.4365C14.0888 61.2474 14.2777 61.0591 14.4524 60.854C14.6116 60.6685 14.7765 60.489 14.9458 60.3127C14.9951 60.2607 15.0444 60.2086 15.0953 60.155C15.2405 60.0386 15.2405 60.0386 15.5146 60.0386Z" fill="#1F7AEC"/>
<path d="M32.3453 58.6131C32.87 58.6131 33.3946 58.6131 33.9352 58.6131C33.9352 62.9551 33.9352 67.297 33.9352 71.7706C33.4105 71.7706 32.8859 71.7706 32.3453 71.7706C32.3453 67.4286 32.3453 63.0866 32.3453 58.6131Z" fill="#1F7AEC"/>
<path d="M29.1112 58.6131C29.6359 58.6131 30.1605 58.6131 30.7011 58.6131C30.7011 62.9551 30.7011 67.297 30.7011 71.7706C30.1764 71.7706 29.6518 71.7706 29.1112 71.7706C29.1112 67.4286 29.1112 63.0866 29.1112 58.6131Z" fill="#1F7AEC"/>
<path d="M0 59.216C0.524654 59.216 1.04931 59.216 1.58986 59.216C1.58986 63.3589 1.58986 67.5019 1.58986 71.7704C1.06521 71.7704 0.540553 71.7704 0 71.7704C0 67.6274 0 63.4845 0 59.216Z" fill="#1F7AEC"/>
<path d="M35.5806 62.0669C36.1052 62.0669 36.6299 62.0669 37.1704 62.0669C37.1704 65.2691 37.1704 68.4713 37.1704 71.7705C36.6458 71.7705 36.1211 71.7705 35.5806 71.7705C35.5806 68.5683 35.5806 65.3661 35.5806 62.0669Z" fill="#1F7AEC"/>
<path d="M35.5254 58.6676C36.0862 58.6676 36.6471 58.6676 37.2249 58.6676C37.2249 59.2646 37.2249 59.8616 37.2249 60.4767C36.6641 60.4767 36.1032 60.4767 35.5254 60.4767C35.5254 59.8797 35.5254 59.2827 35.5254 58.6676Z" fill="#1F7AEC"/>
</svg>
